# Blender v2.79 (sub 0) OBJ File: 'temp.blend'
# www.blender.org
mtllib allium.mtl
o Cube_Cube.309
v -0.004665 0.003713 0.000000
v -0.004665 0.120138 0.000000
v -0.000000 0.003713 -0.004665
v -0.000000 0.120138 -0.004665
v 0.000000 0.003713 0.004665
v 0.000000 0.120138 0.004665
v 0.004665 0.003713 -0.000000
v 0.004665 0.120138 -0.000000
v 0.000000 0.104181 0.000000
v 0.022455 0.120913 0.016314
v -0.007396 0.122824 0.022762
v -0.025192 0.122194 0.000000
v -0.007497 0.122659 -0.023075
v 0.020934 0.121852 -0.015209
v 0.007912 0.147593 0.024351
v -0.019782 0.147017 0.014372
v -0.019785 0.147019 -0.014375
v 0.007373 0.146720 -0.022692
v 0.025469 0.147525 -0.000000
v 0.000000 0.164572 0.000000
v -0.004530 0.111072 0.013941
v 0.012232 0.110327 0.008887
v 0.006845 0.121099 0.021068
v 0.022923 0.120623 0.000000
v 0.012686 0.109419 -0.009217
v -0.014091 0.111990 0.000000
v -0.018547 0.120622 0.013475
v -0.004637 0.110511 -0.014271
v -0.020584 0.119066 -0.014955
v 0.007743 0.119304 -0.023831
v 0.026201 0.134790 0.008513
v 0.025383 0.134790 -0.008247
v -0.000000 0.134790 0.029973
v 0.017055 0.134790 0.023475
v -0.028010 0.134790 0.009101
v -0.015145 0.134790 0.020846
v -0.016707 0.134790 -0.022996
v -0.029169 0.134790 -0.009478
v 0.015678 0.134790 -0.021579
v 0.000000 0.134790 -0.030706
v 0.021666 0.151342 0.015742
v -0.007239 0.149269 0.022280
v -0.025277 0.150413 0.000000
v -0.007359 0.149509 -0.022649
v 0.017942 0.148497 -0.013036
v 0.004547 0.158602 0.013996
v 0.014707 0.158586 0.000000
v -0.011094 0.156979 0.008060
v -0.011646 0.158082 -0.008461
v 0.004594 0.158845 -0.014139
vn -0.7071 0.0000 -0.7071
vn 0.7071 0.0000 -0.7071
vn 0.7071 0.0000 0.7071
vn -0.7071 0.0000 0.7071
vn 0.0000 -1.0000 0.0000
vn 0.0000 1.0000 0.0000
vn 0.1018 -0.8783 0.4672
vn 0.7073 -0.7061 0.0329
vn -0.4674 -0.8434 0.2650
vn -0.4723 -0.8523 -0.2246
vn 0.0663 -0.9039 -0.4225
vn 0.9693 -0.2436 0.0322
vn 0.0362 -0.5321 0.8459
vn -0.8243 -0.4410 0.3550
vn -0.4332 -0.3234 -0.8413
vn 0.5620 -0.1703 -0.8094
vn 0.8516 0.0627 0.5205
vn -0.5064 -0.1934 0.8403
vn -0.9640 -0.2591 0.0601
vn -0.4000 -0.2980 -0.8667
vn 0.8079 0.0386 -0.5881
vn 0.2296 0.7032 0.6729
vn -0.4558 0.7248 0.5166
vn -0.6248 0.6721 -0.3974
vn 0.1093 0.5895 -0.8003
vn 0.6740 0.6558 -0.3402
vn 0.3655 0.8980 -0.2449
vn 0.5813 0.7069 -0.4028
vn 0.4981 0.5731 -0.6507
vn -0.1888 0.8873 -0.4207
vn -0.2311 0.8002 -0.5534
vn -0.5017 0.6649 -0.5534
vn -0.5260 0.8473 0.0741
vn -0.4535 0.8881 0.0744
vn -0.5594 0.7330 0.3870
vn -0.2591 0.8552 0.4489
vn -0.2795 0.8103 0.5151
vn -0.0247 0.6809 0.7319
vn 0.3637 0.8936 0.2630
vn 0.3550 0.8989 0.2567
vn 0.7167 0.6974 0.0040
vn 0.8372 0.2933 -0.4615
vn 0.7873 0.2272 -0.5731
vn 0.5991 0.3499 -0.7202
vn 0.0948 0.5141 -0.8525
vn -0.4027 0.2764 -0.8726
vn -0.5646 0.3759 -0.7348
vn -0.7956 0.4466 -0.4094
vn -0.9766 0.2063 0.0609
vn -0.8293 0.3824 0.4074
vn -0.5482 0.2194 0.8071
vn -0.5064 0.1933 0.8403
vn -0.0739 0.4389 0.8955
vn 0.4574 0.2686 0.8477
vn 0.8532 0.0060 0.5215
vn 0.9650 0.1818 0.1890
vn 0.4857 0.2604 -0.8344
vn 0.4988 -0.1310 -0.8568
vn -0.1449 -0.4611 -0.8754
vn -0.7056 0.2810 -0.6505
vn -0.7254 -0.1631 -0.6687
vn -0.8882 -0.4202 -0.1857
vn -0.6681 0.1341 0.7319
vn -0.6582 -0.2170 0.7209
vn -0.5877 -0.2578 0.7669
vn 0.3497 0.1869 0.9180
vn 0.3271 -0.3949 0.8585
vn 0.2682 -0.3573 0.8947
vn 0.9985 0.0248 -0.0487
vn 0.9791 -0.1978 -0.0477
vn 0.9570 -0.2509 -0.1455
vn 0.5086 -0.6235 -0.5938
vn 0.1197 -0.8031 -0.5837
vn -0.1716 -0.6043 -0.7780
vn -0.2930 -0.6054 -0.7401
vn -0.4549 -0.8650 -0.2117
vn -0.6758 -0.7351 -0.0544
vn -0.6569 -0.7146 0.2405
vn -0.5407 -0.7781 0.3196
vn -0.4350 -0.6060 0.6660
vn 0.7886 -0.5960 -0.1513
vn 0.7152 -0.6970 0.0529
vn 0.4155 -0.9079 0.0559
vn 0.0232 -0.5965 0.8023
vn 0.1786 -0.6965 0.6950
vn 0.2042 -0.6867 0.6976
usemtl Green
s off
f 1//1 2//1 4//1 3//1
f 3//2 4//2 8//2 7//2
f 7//3 8//3 6//3 5//3
f 5//4 6//4 2//4 1//4
f 3//5 7//5 5//5 1//5
f 8//6 4//6 2//6 6//6
usemtl Purple
f 9//7 22//7 21//7
f 10//8 22//8 24//8
f 9//9 21//9 26//9
f 9//10 26//10 28//10
f 9//11 28//11 25//11
f 10//12 24//12 31//12
f 11//13 23//13 33//13
f 12//14 27//14 35//14
f 13//15 29//15 37//15
f 14//16 30//16 39//16
f 10//17 31//17 34//17
f 11//18 33//18 36//18
f 12//19 35//19 38//19
f 13//20 37//20 40//20
f 14//21 39//21 32//21
f 15//22 41//22 46//22
f 16//23 42//23 48//23
f 17//24 43//24 49//24
f 18//25 44//25 50//25
f 19//26 45//26 47//26
f 47//27 50//27 20//27
f 47//28 45//28 50//28
f 45//29 18//29 50//29
f 50//30 49//30 20//30
f 50//31 44//31 49//31
f 44//32 17//32 49//32
f 49//33 48//33 20//33
f 49//34 43//34 48//34
f 43//35 16//35 48//35
f 48//36 46//36 20//36
f 48//37 42//37 46//37
f 42//38 15//38 46//38
f 46//39 47//39 20//39
f 46//40 41//40 47//40
f 41//41 19//41 47//41
f 32//42 45//42 19//42
f 32//43 39//43 45//43
f 39//44 18//44 45//44
f 40//45 44//45 18//45
f 40//46 37//46 44//46
f 37//47 17//47 44//47
f 38//48 43//48 17//48
f 38//49 35//49 43//49
f 35//50 16//50 43//50
f 36//51 42//51 16//51
f 36//52 33//52 42//52
f 33//53 15//53 42//53
f 34//54 41//54 15//54
f 34//55 31//55 41//55
f 31//56 19//56 41//56
f 39//57 40//57 18//57
f 39//58 30//58 40//58
f 30//59 13//59 40//59
f 37//60 38//60 17//60
f 37//61 29//61 38//61
f 29//62 12//62 38//62
f 35//63 36//63 16//63
f 35//64 27//64 36//64
f 27//65 11//65 36//65
f 33//66 34//66 15//66
f 33//67 23//67 34//67
f 23//68 10//68 34//68
f 31//69 32//69 19//69
f 31//70 24//70 32//70
f 24//71 14//71 32//71
f 25//72 30//72 14//72
f 25//73 28//73 30//73
f 28//74 13//74 30//74
f 28//75 29//75 13//75
f 28//76 26//76 29//76
f 26//77 12//77 29//77
f 26//78 27//78 12//78
f 26//79 21//79 27//79
f 21//80 11//80 27//80
f 24//81 25//81 14//81
f 24//82 22//82 25//82
f 22//83 9//83 25//83
f 21//84 23//84 11//84
f 21//85 22//85 23//85
f 22//86 10//86 23//86
