# Blender v2.79 (sub 0) OBJ File: 'temp.blend'
# www.blender.org
mtllib lightblueyellowflower.mtl
o Cube.001_Cube.026
v 0.000329 0.000802 0.006570
v 0.000329 0.070246 0.006570
v -0.004718 0.070246 0.001523
v -0.004718 0.000802 0.001523
v 0.000854 0.070246 -0.004048
v 0.000854 0.000802 -0.004048
v 0.005901 0.070246 0.000998
v 0.005901 0.000802 0.000998
v 0.000000 0.070922 0.016981
v 0.000000 0.060696 0.000000
v 0.012007 0.070922 0.012007
v 0.016981 0.070922 0.000000
v 0.008213 0.069646 -0.011163
v -0.000135 0.071211 -0.014897
v -0.012007 0.070922 -0.012007
v -0.016981 0.070922 0.000000
v -0.012007 0.070922 0.012007
v 0.018216 0.071419 0.012573
v 0.018216 0.071419 -0.009316
v 0.031888 0.075526 0.010034
v 0.044102 0.082075 0.001629
v 0.031888 0.075526 -0.006777
v 0.007275 0.071682 0.007240
v 0.007275 0.071682 -0.003983
v 0.017454 0.073365 0.012573
v 0.017454 0.073365 -0.009316
v 0.043339 0.084021 0.001629
v 0.031126 0.077472 0.010034
v 0.031126 0.077472 -0.006777
v 0.021066 0.077472 0.028379
v -0.029180 0.077472 -0.020920
v -0.032149 0.077472 0.008014
v -0.032149 0.077472 -0.008797
v -0.044362 0.084021 -0.000392
v -0.018477 0.073365 0.010553
v -0.018477 0.073365 -0.011336
v -0.008298 0.071682 0.005220
v -0.008298 0.071682 -0.006003
v -0.032911 0.075526 0.008014
v -0.045125 0.082075 -0.000392
v -0.032911 0.075526 -0.008797
v -0.019239 0.071419 0.010553
v -0.019239 0.071419 -0.011336
v -0.009061 0.069736 -0.006003
v -0.009061 0.069736 0.005220
v -0.017229 0.077472 -0.032744
v -0.031794 0.084021 -0.035514
v -0.021369 0.073365 -0.009416
v -0.005809 0.073365 -0.024811
v -0.010419 0.071682 -0.005930
v -0.002440 0.071682 -0.013824
v -0.029716 0.075526 -0.021462
v -0.032331 0.082075 -0.036057
v -0.017765 0.075526 -0.033286
v -0.021905 0.071419 -0.009958
v -0.006345 0.071419 -0.025352
v -0.002977 0.069736 -0.014367
v -0.010955 0.069736 -0.006473
v -0.002910 0.069736 0.016766
v -0.010804 0.069736 0.008787
v -0.021789 0.071419 0.012155
v -0.006395 0.071419 0.027715
v -0.029723 0.075526 0.023575
v -0.032494 0.082075 0.038141
v -0.017899 0.075526 0.035526
v -0.000000 0.082917 0.000000
v -0.010261 0.071682 0.008250
v -0.002368 0.071682 0.016229
v -0.021248 0.073365 0.011619
v -0.005853 0.073365 0.027179
v -0.031952 0.084021 0.037604
v -0.029181 0.077472 0.023039
v -0.017357 0.077472 0.034990
v 0.012007 0.071690 0.012007
v 0.006946 0.077062 0.006946
v 0.000000 0.077062 0.009824
v 0.000000 0.071690 0.016981
v 0.016981 0.071690 0.000000
v 0.008213 0.072666 -0.011163
v -0.000135 0.072666 -0.014897
v -0.012007 0.071690 -0.012007
v -0.016981 0.071690 0.000000
v -0.012007 0.071690 0.012007
v -0.009824 0.077062 0.000000
v -0.006946 0.077062 -0.006946
v 0.000000 0.077062 -0.009824
v 0.006946 0.077062 -0.006946
v 0.009824 0.077062 0.000000
v -0.006946 0.077062 0.006946
v 0.008038 0.069736 0.007240
v 0.008038 0.069736 -0.003983
v 0.006268 0.077472 0.036356
v 0.019462 0.084021 0.043118
v 0.016814 0.073365 0.015139
v -0.002454 0.073365 0.025525
v 0.007290 0.071682 0.008710
v -0.002590 0.071682 0.014035
v 0.021428 0.075526 0.029050
v 0.019824 0.082075 0.043790
v 0.006630 0.075526 0.037027
v 0.017175 0.071419 0.015810
v -0.002092 0.071419 0.026196
v -0.002228 0.069736 0.014707
v 0.007652 0.069736 0.009381
v -0.001384 0.069736 -0.011657
v 0.008486 0.069736 -0.006315
v 0.018020 0.071419 -0.012729
v -0.001230 0.071419 -0.023146
v 0.022295 0.075526 -0.025961
v 0.020716 0.082075 -0.040704
v 0.007509 0.075526 -0.033962
v 0.008123 0.071682 -0.005644
v -0.001747 0.071682 -0.010986
v 0.017658 0.073365 -0.012059
v -0.001593 0.073365 -0.022476
v 0.020352 0.084021 -0.040033
v 0.021932 0.077472 -0.025291
v 0.007147 0.077472 -0.033292
vn -0.2075 0.8403 -0.5008
vn -0.5008 0.8403 -0.2075
vn 0.5008 0.8403 -0.2075
vn 0.5008 0.8403 0.2075
vn -0.2075 0.8403 0.5008
vn -0.5008 0.8403 0.2075
vn 0.2075 0.8403 0.5008
vn 0.2413 0.7762 0.5825
vn 0.3827 -0.0000 0.9239
vn 0.7864 -0.0000 -0.6177
vn -0.2365 0.0000 -0.9716
vn -0.9239 0.0000 0.3827
vn 0.9239 0.0000 0.3827
vn 0.4083 0.0000 -0.9128
vn -0.9239 -0.0000 -0.3827
vn -0.3827 -0.0000 0.9239
vn -0.5825 0.7762 -0.2413
vn 0.2777 0.7144 -0.6423
vn 0.5825 0.7762 0.2413
vn -0.5825 0.7762 0.2413
vn -0.2271 0.7568 -0.6130
vn 0.6224 0.6935 -0.3629
vn -0.2413 0.7762 0.5825
vn 0.2075 0.8403 -0.5008
vn 0.2877 -0.9577 0.0000
vn 0.4726 -0.8813 0.0000
vn -0.1631 0.9866 -0.0000
vn -0.2877 0.9577 -0.0000
vn -0.4726 0.8813 0.0000
vn 0.2242 -0.8813 0.4160
vn -0.0774 0.9866 -0.1436
vn -0.1365 0.9577 -0.2533
vn -0.2242 0.8813 -0.4160
vn 0.3324 0.8813 0.3359
vn 0.2024 0.9577 0.2045
vn 0.1147 0.9866 0.1160
vn -0.3324 -0.8813 -0.3359
vn 0.4726 0.8813 0.0000
vn 0.2877 0.9577 0.0000
vn 0.1631 0.9866 0.0000
vn -0.4726 -0.8813 0.0000
vn -0.2877 -0.9577 0.0000
vn -0.1631 -0.9866 0.0000
vn -0.2024 -0.9577 -0.2045
vn -0.1635 0.0640 0.9845
vn -0.4854 0.1902 0.8534
vn 0.4350 -0.1705 -0.8841
vn 0.4350 -0.1705 0.8841
vn -0.1635 0.0640 -0.9845
vn -0.4853 0.1902 -0.8534
vn -0.1147 -0.9866 -0.1160
vn -0.8148 0.0640 0.5761
vn -0.9480 0.1902 0.2552
vn 0.9345 -0.1705 -0.3126
vn -0.3226 -0.1705 0.9311
vn 0.5848 0.0640 -0.8086
vn 0.2653 0.1902 -0.9452
vn -0.9452 0.1902 -0.2653
vn -0.8086 0.0640 -0.5848
vn 0.9311 -0.1705 0.3226
vn -0.3126 -0.1705 -0.9345
vn 0.2552 0.1902 0.9480
vn 0.5761 0.0640 0.8148
vn -0.1160 -0.9866 0.1147
vn -0.2045 -0.9577 0.2024
vn -0.3359 -0.8813 0.3324
vn 0.1160 0.9866 -0.1147
vn 0.2045 0.9577 -0.2024
vn 0.3359 0.8813 -0.3324
vn 0.1631 -0.9866 -0.0000
vn 0.1365 -0.9577 0.2533
vn 0.1635 0.0640 -0.9845
vn 0.4854 0.1902 -0.8534
vn -0.4350 -0.1705 0.8841
vn -0.4350 -0.1705 -0.8841
vn 0.1635 0.0640 0.9845
vn 0.4853 0.1902 0.8534
vn 0.0774 -0.9866 0.1436
vn 0.9442 0.0640 -0.3232
vn 0.9815 0.1902 0.0223
vn -0.9847 -0.1705 0.0366
vn 0.5719 -0.1705 -0.8024
vn -0.7890 0.0640 0.6111
vn -0.5209 0.1902 0.8322
vn 0.9815 0.1902 -0.0207
vn 0.9436 0.0640 0.3247
vn -0.9846 -0.1705 -0.0382
vn 0.5705 -0.1705 0.8034
vn -0.5195 0.1902 -0.8330
vn -0.7880 0.0640 -0.6124
vn 0.0776 -0.9866 -0.1435
vn 0.1369 -0.9577 -0.2530
vn 0.2249 -0.8813 -0.4156
vn -0.0776 0.9866 0.1435
vn -0.1369 0.9577 0.2530
vn -0.2249 0.8813 0.4156
vn -0.7071 -0.0000 0.7071
vn -0.7070 0.0000 -0.7072
vn 0.7070 0.0000 -0.7072
vn 0.7071 -0.0000 0.7071
vn -0.0000 -1.0000 -0.0000
vn 0.2090 -0.8377 0.5045
vn 0.4931 -0.8189 -0.2937
vn -0.1194 -0.8116 -0.5718
vn -0.5045 -0.8377 0.2090
vn 0.5045 -0.8377 0.2090
vn 0.1046 -0.8121 -0.5741
vn -0.5045 -0.8377 -0.2090
vn -0.2090 -0.8377 0.5045
usemtl Yellow
s off
f 86//1 85//1 66//1
f 85//2 84//2 66//2
f 88//3 87//3 66//3
f 75//4 88//4 66//4
f 89//5 76//5 66//5
f 84//6 89//6 66//6
f 76//7 75//7 66//7
f 74//8 75//8 76//8 77//8
f 77//9 9//9 11//9 74//9
f 78//10 12//10 13//10 79//10
f 80//11 14//11 15//11 81//11
f 82//12 16//12 17//12 83//12
f 74//13 11//13 12//13 78//13
f 79//14 13//14 14//14 80//14
f 81//15 15//15 16//15 82//15
f 83//16 17//16 9//16 77//16
f 82//17 84//17 85//17 81//17
f 80//18 86//18 87//18 79//18
f 78//19 88//19 75//19 74//19
f 83//20 89//20 84//20 82//20
f 81//21 85//21 86//21 80//21
f 79//22 87//22 88//22 78//22
f 77//23 76//23 89//23 83//23
f 87//24 86//24 66//24
usemtl Light_Blue
f 19//25 22//25 20//25 18//25
f 22//26 21//26 20//26
f 25//27 26//27 24//27 23//27
f 26//28 25//28 28//28 29//28
f 29//29 28//29 27//29
f 98//30 99//30 100//30
f 95//31 94//31 96//31 97//31
f 94//32 95//32 92//32 30//32
f 30//33 92//33 93//33
f 31//34 46//34 47//34
f 48//35 49//35 46//35 31//35
f 49//36 48//36 50//36 51//36
f 52//37 53//37 54//37
f 32//38 33//38 34//38
f 35//39 36//39 33//39 32//39
f 36//40 35//40 37//40 38//40
f 39//41 40//41 41//41
f 42//42 39//42 41//42 43//42
f 43//43 44//43 45//43 42//43
f 55//44 52//44 54//44 56//44
f 32//45 39//45 42//45 35//45
f 34//46 40//46 39//46 32//46
f 38//47 44//47 43//47 36//47
f 35//48 42//48 45//48 37//48
f 36//49 43//49 41//49 33//49
f 33//50 41//50 40//50 34//50
f 56//51 57//51 58//51 55//51
f 31//52 52//52 55//52 48//52
f 47//53 53//53 52//53 31//53
f 51//54 57//54 56//54 49//54
f 48//55 55//55 58//55 50//55
f 49//56 56//56 54//56 46//56
f 46//57 54//57 53//57 47//57
f 72//58 63//58 64//58 71//58
f 69//59 61//59 63//59 72//59
f 70//60 62//60 59//60 68//60
f 67//61 60//61 61//61 69//61
f 71//62 64//62 65//62 73//62
f 73//63 65//63 62//63 70//63
f 61//64 60//64 59//64 62//64
f 62//65 65//65 63//65 61//65
f 65//66 64//66 63//66
f 69//67 70//67 68//67 67//67
f 70//68 69//68 72//68 73//68
f 73//69 72//69 71//69
f 18//70 90//70 91//70 19//70
f 101//71 98//71 100//71 102//71
f 29//72 22//72 19//72 26//72
f 27//73 21//73 22//73 29//73
f 23//74 90//74 18//74 25//74
f 26//75 19//75 91//75 24//75
f 25//76 18//76 20//76 28//76
f 28//77 20//77 21//77 27//77
f 102//78 103//78 104//78 101//78
f 30//79 98//79 101//79 94//79
f 93//80 99//80 98//80 30//80
f 97//81 103//81 102//81 95//81
f 94//82 101//82 104//82 96//82
f 95//83 102//83 100//83 92//83
f 92//84 100//84 99//84 93//84
f 117//85 109//85 110//85 116//85
f 114//86 107//86 109//86 117//86
f 115//87 108//87 105//87 113//87
f 112//88 106//88 107//88 114//88
f 116//89 110//89 111//89 118//89
f 118//90 111//90 108//90 115//90
f 107//91 106//91 105//91 108//91
f 108//92 111//92 109//92 107//92
f 111//93 110//93 109//93
f 114//94 115//94 113//94 112//94
f 115//95 114//95 117//95 118//95
f 118//96 117//96 116//96
usemtl Green
f 1//97 2//97 3//97 4//97
f 4//98 3//98 5//98 6//98
f 6//99 5//99 7//99 8//99
f 8//100 7//100 2//100 1//100
f 4//101 6//101 8//101 1//101
f 9//102 10//102 11//102
f 12//103 10//103 13//103
f 14//104 10//104 15//104
f 16//105 10//105 17//105
f 11//106 10//106 12//106
f 13//107 10//107 14//107
f 15//108 10//108 16//108
f 17//109 10//109 9//109
