# Blender v2.79 (sub 0) OBJ File: 'temp.blend'
# www.blender.org
mtllib redwhiteflower.mtl
o Cube.001_Cube.002
v 0.000329 0.000802 0.006570
v 0.000329 0.070246 0.006570
v -0.004718 0.000802 0.001523
v -0.004718 0.070246 0.001523
v 0.005901 0.000802 0.000998
v 0.005901 0.070246 0.000998
v 0.000854 0.000802 -0.004048
v 0.000854 0.070246 -0.004048
v -0.000645 0.086362 0.042870
v -0.011075 0.078270 0.030656
v 0.009786 0.078270 0.030656
v 0.006319 0.071682 0.006806
v -0.007608 0.071682 0.006806
v 0.012936 0.073365 0.016984
v -0.014225 0.073365 0.016984
v -0.012007 0.071690 0.012007
v -0.016981 0.071690 -0.000000
v -0.012007 0.071690 -0.012007
v -0.000135 0.072666 -0.014897
v 0.008213 0.072666 -0.011163
v 0.016981 0.071690 -0.000000
v 0.012007 0.071690 0.012007
v 0.000000 0.071690 0.016981
v -0.011075 0.076324 0.031419
v -0.000645 0.084416 0.043632
v 0.009786 0.076324 0.031419
v -0.014225 0.071419 0.017747
v 0.012936 0.071419 0.017747
v 0.006319 0.069736 0.007568
v -0.007608 0.069736 0.007568
v -0.044362 0.086362 -0.000392
v -0.032149 0.078270 -0.010822
v -0.032149 0.078270 0.010039
v -0.008298 0.071682 0.006572
v -0.008298 0.071682 -0.007355
v -0.018477 0.073365 0.013189
v -0.018477 0.073365 -0.013972
v -0.032911 0.076324 -0.010822
v -0.045125 0.084416 -0.000392
v -0.032911 0.076324 0.010039
v -0.019239 0.071419 -0.013972
v -0.019239 0.071419 0.013189
v -0.009061 0.069736 0.006572
v -0.009061 0.069736 -0.007355
v -0.000883 0.086362 -0.043729
v 0.009547 0.078270 -0.031515
v -0.011314 0.078270 -0.031515
v -0.007847 0.071682 -0.007665
v 0.006080 0.071682 -0.007665
v -0.014464 0.073365 -0.017843
v 0.012697 0.073365 -0.017843
v 0.009547 0.076324 -0.032278
v -0.000883 0.084416 -0.044491
v -0.011314 0.076324 -0.032278
v 0.012697 0.071419 -0.018606
v -0.014464 0.071419 -0.018606
v -0.007847 0.069736 -0.008427
v 0.006080 0.069736 -0.008427
v 0.042834 0.086362 -0.000467
v 0.030621 0.078270 0.009963
v 0.030621 0.078270 -0.010898
v 0.006770 0.071682 -0.007431
v 0.006770 0.071682 0.006496
v 0.016949 0.073365 -0.014048
v 0.016949 0.073365 0.013113
v 0.031384 0.076324 0.009963
v 0.043597 0.084416 -0.000467
v 0.031383 0.076324 -0.010898
v 0.017712 0.071419 0.013113
v 0.017712 0.071419 -0.014048
v 0.007533 0.069736 -0.007431
v 0.007533 0.069736 0.006496
v 0.000000 0.070922 0.016981
v -0.012007 0.070922 0.012007
v -0.016981 0.070922 -0.000000
v -0.012007 0.070922 -0.012007
v -0.000135 0.071211 -0.014897
v 0.008213 0.069646 -0.011163
v 0.016981 0.070922 -0.000000
v 0.012007 0.070922 0.012007
v 0.000000 0.060696 -0.000000
v 0.006138 0.077062 0.006138
v 0.008681 0.077062 -0.000000
v 0.006138 0.077062 -0.006138
v 0.000000 0.077062 -0.008681
v -0.006138 0.077062 -0.006138
v -0.008681 0.077062 -0.000000
v -0.006138 0.077062 0.006138
v 0.000000 0.077062 0.008681
vn -0.7071 0.0000 0.7071
vn -0.7071 0.0000 -0.7071
vn 0.7071 0.0000 -0.7071
vn 0.7071 0.0000 0.7071
vn 0.0000 -1.0000 0.0000
vn 0.2090 -0.8378 0.5045
vn 0.4931 -0.8189 -0.2937
vn -0.1194 -0.8117 -0.5718
vn -0.5045 -0.8378 0.2090
vn 0.5045 -0.8378 0.2090
vn 0.1046 -0.8121 -0.5741
vn -0.5045 -0.8378 -0.2090
vn -0.2090 -0.8378 0.5045
vn 0.0000 0.8336 -0.5523
vn 0.0000 0.9413 -0.3377
vn 0.0000 0.9866 -0.1632
vn 0.0000 -0.8336 0.5523
vn 0.0000 -0.9413 0.3377
vn 0.0000 -0.9866 0.1632
vn 0.0000 -0.3649 -0.9311
vn 0.9773 0.0774 0.1974
vn 0.8084 0.2148 0.5481
vn -0.8363 -0.2001 -0.5105
vn 0.8363 -0.2001 -0.5105
vn -0.9773 0.0774 0.1974
vn -0.8084 0.2148 0.5481
vn 0.5523 0.8336 0.0000
vn 0.3377 0.9413 -0.0000
vn 0.1632 0.9866 -0.0000
vn -0.5523 -0.8336 0.0000
vn -0.3377 -0.9413 0.0000
vn -0.1632 -0.9866 0.0000
vn 0.9311 -0.3649 0.0000
vn -0.1974 0.0774 0.9773
vn -0.5481 0.2148 0.8084
vn 0.5105 -0.2001 -0.8363
vn 0.5105 -0.2001 0.8363
vn -0.1974 0.0774 -0.9773
vn -0.5481 0.2148 -0.8084
vn 0.0000 0.8336 0.5523
vn 0.0000 0.9413 0.3377
vn 0.0000 0.9866 0.1632
vn 0.0000 -0.8336 -0.5523
vn -0.0000 -0.9413 -0.3377
vn -0.0000 -0.9866 -0.1632
vn 0.0000 -0.3649 0.9311
vn -0.9773 0.0774 -0.1974
vn -0.8084 0.2148 -0.5481
vn 0.8363 -0.2001 0.5105
vn -0.8363 -0.2001 0.5105
vn 0.9773 0.0774 -0.1974
vn 0.8084 0.2148 -0.5481
vn -0.5523 0.8336 0.0000
vn -0.3377 0.9413 -0.0000
vn -0.1632 0.9866 0.0000
vn 0.5523 -0.8336 -0.0000
vn 0.3377 -0.9413 0.0000
vn 0.1632 -0.9866 0.0000
vn -0.9311 -0.3649 0.0000
vn 0.1974 0.0774 -0.9773
vn 0.5481 0.2148 -0.8084
vn -0.5105 -0.2001 0.8363
vn -0.5105 -0.2001 -0.8363
vn 0.1974 0.0774 0.9773
vn 0.5481 0.2148 0.8084
vn 0.2196 0.8190 0.5301
vn 0.3827 0.0000 0.9239
vn 0.7864 0.0000 -0.6177
vn -0.2365 0.0000 -0.9716
vn -0.9239 0.0000 0.3827
vn 0.9239 0.0000 0.3827
vn 0.4083 0.0000 -0.9129
vn -0.9239 0.0000 -0.3827
vn -0.3827 0.0000 0.9239
vn -0.5301 0.8190 -0.2196
vn 0.2470 0.7835 -0.5702
vn 0.5301 0.8190 0.2196
vn -0.5301 0.8190 0.2196
vn -0.2096 0.8087 -0.5495
vn 0.5608 0.7621 -0.3236
vn -0.2196 0.8190 0.5301
vn 0.0000 1.0000 0.0000
usemtl Green
s off
f 1//1 2//1 4//1 3//1
f 3//2 4//2 8//2 7//2
f 7//3 8//3 6//3 5//3
f 5//4 6//4 2//4 1//4
f 3//5 7//5 5//5 1//5
f 73//6 81//6 80//6
f 79//7 81//7 78//7
f 77//8 81//8 76//8
f 75//9 81//9 74//9
f 80//10 81//10 79//10
f 78//11 81//11 77//11
f 76//12 81//12 75//12
f 74//13 81//13 73//13
usemtl Red
f 11//14 10//14 9//14
f 14//15 15//15 10//15 11//15
f 15//16 14//16 12//16 13//16
f 26//17 25//17 24//17
f 28//18 26//18 24//18 27//18
f 27//19 30//19 29//19 28//19
f 12//20 29//20 30//20 13//20
f 11//21 26//21 28//21 14//21
f 9//22 25//22 26//22 11//22
f 13//23 30//23 27//23 15//23
f 14//24 28//24 29//24 12//24
f 15//25 27//25 24//25 10//25
f 10//26 24//26 25//26 9//26
f 33//27 32//27 31//27
f 36//28 37//28 32//28 33//28
f 37//29 36//29 34//29 35//29
f 40//30 39//30 38//30
f 42//31 40//31 38//31 41//31
f 41//32 44//32 43//32 42//32
f 34//33 43//33 44//33 35//33
f 33//34 40//34 42//34 36//34
f 31//35 39//35 40//35 33//35
f 35//36 44//36 41//36 37//36
f 36//37 42//37 43//37 34//37
f 37//38 41//38 38//38 32//38
f 32//39 38//39 39//39 31//39
f 47//40 46//40 45//40
f 50//41 51//41 46//41 47//41
f 51//42 50//42 48//42 49//42
f 54//43 53//43 52//43
f 56//44 54//44 52//44 55//44
f 55//45 58//45 57//45 56//45
f 48//46 57//46 58//46 49//46
f 47//47 54//47 56//47 50//47
f 45//48 53//48 54//48 47//48
f 49//49 58//49 55//49 51//49
f 50//50 56//50 57//50 48//50
f 51//51 55//51 52//51 46//51
f 46//52 52//52 53//52 45//52
f 61//53 60//53 59//53
f 64//54 65//54 60//54 61//54
f 65//55 64//55 62//55 63//55
f 68//56 67//56 66//56
f 70//57 68//57 66//57 69//57
f 69//58 72//58 71//58 70//58
f 62//59 71//59 72//59 63//59
f 61//60 68//60 70//60 64//60
f 59//61 67//61 68//61 61//61
f 63//62 72//62 69//62 65//62
f 64//63 70//63 71//63 62//63
f 65//64 69//64 66//64 60//64
f 60//65 66//65 67//65 59//65
usemtl White
f 22//66 82//66 89//66 23//66
f 23//67 73//67 80//67 22//67
f 21//68 79//68 78//68 20//68
f 19//69 77//69 76//69 18//69
f 17//70 75//70 74//70 16//70
f 22//71 80//71 79//71 21//71
f 20//72 78//72 77//72 19//72
f 18//73 76//73 75//73 17//73
f 16//74 74//74 73//74 23//74
f 17//75 87//75 86//75 18//75
f 19//76 85//76 84//76 20//76
f 21//77 83//77 82//77 22//77
f 16//78 88//78 87//78 17//78
f 18//79 86//79 85//79 19//79
f 20//80 84//80 83//80 21//80
f 23//81 89//81 88//81 16//81
f 82//82 83//82 84//82 85//82 86//82 87//82 88//82 89//82
