# Blender v2.79 (sub 0) OBJ File: 'temp.blend'
# www.blender.org
mtllib rose.mtl
o Cube.001_Cube.018
v 0.014863 0.101466 0.012009
v -0.006954 0.101466 0.017994
v 0.000777 0.117625 0.015873
v 0.007132 0.117625 0.014130
v 0.015060 0.086301 0.008003
v -0.009168 0.086301 0.014649
v 0.007389 0.074826 0.002411
v -0.005424 0.074826 0.005926
v -0.020522 0.101466 -0.018484
v 0.002325 0.101466 -0.023421
v -0.005771 0.117625 -0.021672
v -0.012426 0.117625 -0.020234
v -0.020685 0.086301 -0.013124
v 0.004687 0.086301 -0.018606
v -0.012567 0.074826 -0.004508
v 0.000850 0.074826 -0.007408
v -0.009042 0.097361 0.019941
v -0.021728 0.097361 0.001210
v -0.017232 0.113521 0.007848
v -0.013537 0.113521 0.013303
v -0.005185 0.082196 0.018839
v -0.019273 0.082196 -0.001962
v -0.002358 0.070721 0.009777
v -0.009808 0.070721 -0.001224
v -0.021926 0.101466 0.009673
v -0.022820 0.101466 -0.013685
v -0.022503 0.117625 -0.005408
v -0.022243 0.117625 0.001396
v -0.016675 0.086301 0.010764
v -0.017669 0.086301 -0.015175
v -0.006781 0.074826 0.004266
v -0.007306 0.074826 -0.009452
v 0.027705 0.104088 0.009534
v 0.010980 0.104088 0.025863
v 0.016907 0.120247 0.020076
v 0.021778 0.120247 0.015320
v 0.024993 0.088923 0.004907
v 0.006419 0.088923 0.023041
v 0.013537 0.077448 0.001927
v 0.003714 0.077448 0.011516
v 0.007294 0.101466 -0.022112
v 0.026781 0.101466 -0.009203
v 0.019875 0.117625 -0.013778
v 0.014200 0.117625 -0.017538
v 0.003343 0.086301 -0.018487
v 0.024983 0.086301 -0.004150
v 0.002843 0.074826 -0.006660
v 0.014287 0.074826 0.000922
v -0.010557 0.097361 -0.012125
v 0.012066 0.097361 -0.012125
v 0.004049 0.113521 -0.012125
v -0.002540 0.113521 -0.012125
v -0.011807 0.082196 -0.008314
v 0.013316 0.082196 -0.008314
v -0.005888 0.070721 -0.000891
v 0.007397 0.070721 -0.000891
v 0.013061 0.101466 -0.010977
v 0.019151 0.101466 0.010811
v 0.016993 0.117625 0.003090
v 0.015219 0.117625 -0.003256
v 0.009053 0.086301 -0.011154
v 0.015817 0.086301 0.013041
v 0.003498 0.074826 -0.003456
v 0.007075 0.074826 0.009339
v -0.017474 0.104088 0.002237
v -0.008619 0.104088 -0.018581
v -0.011757 0.120247 -0.011203
v -0.014336 0.120247 -0.005140
v -0.014455 0.088923 0.004879
v -0.004622 0.088923 -0.018239
v -0.005309 0.077448 0.002338
v -0.000109 0.077448 -0.009888
v -0.006476 0.077582 0.009236
v -0.006476 0.077582 -0.005041
v 0.007801 0.077582 -0.005041
v 0.007801 0.077582 0.009236
v -0.003764 0.072123 0.006524
v 0.005089 0.072123 0.006524
v 0.005089 0.072123 -0.002328
v -0.003764 0.072123 -0.002328
v 0.000329 0.000802 0.006570
v 0.000329 0.076638 0.006570
v -0.004718 0.076638 0.001523
v -0.004718 0.000802 0.001523
v 0.000854 0.076638 -0.004048
v 0.000854 0.000802 -0.004048
v 0.005901 0.076638 0.000998
v 0.005901 0.000802 0.000998
v 0.025129 0.105572 -0.007918
v 0.023692 0.105572 0.015413
v 0.024202 0.121732 0.007145
v 0.024620 0.121732 0.000350
v 0.020014 0.090407 -0.009527
v 0.018418 0.090407 0.016382
v 0.009521 0.078933 -0.004046
v 0.008677 0.078933 0.009655
v 0.005926 0.104088 0.022628
v -0.017233 0.104088 0.019457
v -0.009026 0.120247 0.020581
v -0.002281 0.120247 0.021504
v 0.007911 0.088923 0.017646
v -0.017807 0.088923 0.014125
v 0.003227 0.077448 0.006775
v -0.010373 0.077448 0.004913
v 0.014863 0.101466 0.012009
v -0.006954 0.101466 0.017994
v 0.000777 0.117625 0.015873
v 0.007132 0.117625 0.014130
v 0.015060 0.086301 0.008003
v -0.009168 0.086301 0.014649
v 0.007389 0.074826 0.002411
v -0.005424 0.074826 0.005926
v -0.020522 0.101466 -0.018484
v 0.002325 0.101466 -0.023421
v -0.005771 0.117625 -0.021672
v -0.012426 0.117625 -0.020234
v -0.020685 0.086301 -0.013124
v 0.004687 0.086301 -0.018606
v -0.012567 0.074826 -0.004508
v 0.000850 0.074826 -0.007408
v -0.009042 0.097361 0.019941
v -0.021728 0.097361 0.001210
v -0.017232 0.113521 0.007848
v -0.013537 0.113521 0.013303
v -0.005185 0.082196 0.018839
v -0.019273 0.082196 -0.001962
v -0.002358 0.070721 0.009777
v -0.009808 0.070721 -0.001224
v -0.021926 0.101466 0.009673
v -0.022820 0.101466 -0.013685
v -0.022503 0.117625 -0.005408
v -0.022243 0.117625 0.001396
v -0.016675 0.086301 0.010764
v -0.017669 0.086301 -0.015175
v -0.006781 0.074826 0.004266
v -0.007306 0.074826 -0.009452
v 0.027705 0.104088 0.009534
v 0.010980 0.104088 0.025863
v 0.016907 0.120247 0.020076
v 0.021778 0.120247 0.015320
v 0.024993 0.088923 0.004907
v 0.006419 0.088923 0.023041
v 0.013537 0.077448 0.001927
v 0.003714 0.077448 0.011516
v 0.007294 0.101466 -0.022112
v 0.026781 0.101466 -0.009203
v 0.019875 0.117625 -0.013778
v 0.014200 0.117625 -0.017538
v 0.003343 0.086301 -0.018487
v 0.024983 0.086301 -0.004150
v 0.002843 0.074826 -0.006660
v 0.014287 0.074826 0.000922
v -0.010557 0.097361 -0.012125
v 0.012066 0.097361 -0.012125
v 0.004049 0.113521 -0.012125
v -0.002540 0.113521 -0.012125
v -0.011807 0.082196 -0.008314
v 0.013316 0.082196 -0.008314
v -0.005888 0.070721 -0.000891
v 0.007397 0.070721 -0.000891
v 0.013061 0.101466 -0.010977
v 0.019151 0.101466 0.010811
v 0.016993 0.117625 0.003090
v 0.015219 0.117625 -0.003256
v 0.009053 0.086301 -0.011154
v 0.015817 0.086301 0.013041
v 0.003498 0.074826 -0.003456
v 0.007075 0.074826 0.009339
v -0.017474 0.104088 0.002237
v -0.008619 0.104088 -0.018581
v -0.011757 0.120247 -0.011203
v -0.014336 0.120247 -0.005140
v -0.014455 0.088923 0.004879
v -0.004622 0.088923 -0.018239
v -0.005309 0.077448 0.002338
v -0.000109 0.077448 -0.009888
v -0.006476 0.077582 0.009236
v -0.006476 0.077582 -0.005041
v 0.007801 0.077582 -0.005041
v 0.007801 0.077582 0.009236
v -0.003764 0.072123 0.006524
v 0.005089 0.072123 0.006524
v 0.005089 0.072123 -0.002328
v -0.003764 0.072123 -0.002328
v 0.025129 0.105572 -0.007918
v 0.023692 0.105572 0.015413
v 0.024202 0.121732 0.007145
v 0.024620 0.121732 0.000350
v 0.020014 0.090407 -0.009527
v 0.018418 0.090407 0.016382
v 0.009521 0.078933 -0.004046
v 0.008677 0.078933 0.009655
v 0.005926 0.104088 0.022628
v -0.017233 0.104088 0.019457
v -0.009026 0.120247 0.020581
v -0.002281 0.120247 0.021504
v 0.007911 0.088923 0.017646
v -0.017807 0.088923 0.014125
v 0.003227 0.077448 0.006775
v -0.010373 0.077448 0.004913
vn -0.2645 0.0000 -0.9644
vn -0.2566 0.2437 -0.9353
vn -0.2221 0.5431 -0.8098
vn 0.2112 0.0000 0.9774
vn 0.1998 0.3246 0.9245
vn 0.1583 0.6620 0.7326
vn 0.8280 -0.0000 -0.5608
vn 0.8030 0.2438 -0.5439
vn 0.6952 0.5431 -0.4708
vn 0.9993 0.0000 -0.0382
vn 0.9451 0.3246 -0.0362
vn 0.7489 0.6620 -0.0287
vn -0.6986 -0.0000 -0.7155
vn -0.6607 0.3247 -0.6768
vn -0.5236 0.6620 -0.5363
vn -0.5523 0.0000 0.8337
vn -0.5224 0.3246 0.7885
vn -0.4140 0.6620 0.6248
vn 0.0000 -0.0000 1.0000
vn 0.0000 0.2437 0.9698
vn 0.0000 0.5431 0.8396
vn -0.9631 -0.0000 0.2692
vn -0.9340 0.2438 0.2611
vn -0.8086 0.5431 0.2261
vn 0.9202 -0.0000 0.3914
vn 0.8925 0.2438 0.3796
vn 0.7727 0.5431 0.3287
vn 0.0000 -1.0000 0.0000
vn 0.0000 1.0000 0.0000
vn -0.8956 0.4449 0.0000
vn 0.8956 0.4449 0.0000
vn 0.0000 0.4450 0.8955
vn 0.0000 0.4449 -0.8956
vn -0.9981 0.0000 -0.0615
vn -0.9441 0.3246 -0.0582
vn -0.7480 0.6621 -0.0461
vn 0.1356 0.0000 -0.9908
vn 0.1283 0.3246 -0.9371
vn 0.1017 0.6620 -0.7426
vn 0.2645 -0.0000 0.9644
vn 0.2566 -0.2437 0.9353
vn 0.2221 -0.5431 0.8098
vn -0.2112 -0.0000 -0.9774
vn -0.1998 -0.3246 -0.9245
vn -0.1583 -0.6620 -0.7326
vn -0.8280 0.0000 0.5608
vn -0.8030 -0.2438 0.5439
vn -0.6952 -0.5431 0.4708
vn -0.9993 -0.0000 0.0382
vn -0.9451 -0.3246 0.0362
vn -0.7489 -0.6620 0.0287
vn 0.6986 0.0000 0.7155
vn 0.6607 -0.3247 0.6768
vn 0.5236 -0.6620 0.5363
vn 0.5523 -0.0000 -0.8337
vn 0.5224 -0.3246 -0.7885
vn 0.4140 -0.6620 -0.6248
vn 0.0000 0.0000 -1.0000
vn 0.0000 -0.2437 -0.9698
vn 0.0000 -0.5431 -0.8396
vn 0.9631 0.0000 -0.2692
vn 0.9340 -0.2438 -0.2611
vn 0.8086 -0.5431 -0.2261
vn -0.9202 0.0000 -0.3914
vn -0.8925 -0.2438 -0.3796
vn -0.7727 -0.5431 -0.3287
vn 0.8956 -0.4449 0.0000
vn -0.8956 -0.4449 0.0000
vn 0.0000 -0.4450 -0.8955
vn 0.0000 -0.4449 0.8956
vn 0.9981 -0.0000 0.0615
vn 0.9441 -0.3246 0.0582
vn 0.7480 -0.6621 0.0461
vn -0.1356 -0.0000 0.9908
vn -0.1283 -0.3246 0.9371
vn -0.1017 -0.6620 0.7426
vn -0.7071 -0.0000 0.7071
vn -0.7070 0.0000 -0.7072
vn 0.7070 0.0000 -0.7072
vn 0.7071 -0.0000 0.7071
usemtl Light_Red
s off
f 1//1 2//1 3//1 4//1
f 5//2 6//2 2//2 1//2
f 6//3 5//3 7//3 8//3
f 9//4 10//4 11//4 12//4
f 13//5 14//5 10//5 9//5
f 14//6 13//6 15//6 16//6
f 17//7 18//7 19//7 20//7
f 21//8 22//8 18//8 17//8
f 22//9 21//9 23//9 24//9
f 25//10 26//10 27//10 28//10
f 29//11 30//11 26//11 25//11
f 30//12 29//12 31//12 32//12
f 33//13 34//13 35//13 36//13
f 37//14 38//14 34//14 33//14
f 38//15 37//15 39//15 40//15
f 41//16 42//16 43//16 44//16
f 45//17 46//17 42//17 41//17
f 46//18 45//18 47//18 48//18
f 49//19 50//19 51//19 52//19
f 53//20 54//20 50//20 49//20
f 54//21 53//21 55//21 56//21
f 57//22 58//22 59//22 60//22
f 61//23 62//23 58//23 57//23
f 62//24 61//24 63//24 64//24
f 65//25 66//25 67//25 68//25
f 69//26 70//26 66//26 65//26
f 70//27 69//27 71//27 72//27
f 73//28 74//28 75//28 76//28
f 77//29 78//29 79//29 80//29
f 76//30 75//30 79//30 78//30
f 74//31 73//31 77//31 80//31
f 75//32 74//32 80//32 79//32
f 73//33 76//33 78//33 77//33
f 89//34 90//34 91//34 92//34
f 93//35 94//35 90//35 89//35
f 94//36 93//36 95//36 96//36
f 97//37 98//37 99//37 100//37
f 101//38 102//38 98//38 97//38
f 102//39 101//39 103//39 104//39
f 105//40 108//40 107//40 106//40
f 109//41 105//41 106//41 110//41
f 110//42 112//42 111//42 109//42
f 113//43 116//43 115//43 114//43
f 117//44 113//44 114//44 118//44
f 118//45 120//45 119//45 117//45
f 121//46 124//46 123//46 122//46
f 125//47 121//47 122//47 126//47
f 126//48 128//48 127//48 125//48
f 129//49 132//49 131//49 130//49
f 133//50 129//50 130//50 134//50
f 134//51 136//51 135//51 133//51
f 137//52 140//52 139//52 138//52
f 141//53 137//53 138//53 142//53
f 142//54 144//54 143//54 141//54
f 145//55 148//55 147//55 146//55
f 149//56 145//56 146//56 150//56
f 150//57 152//57 151//57 149//57
f 153//58 156//58 155//58 154//58
f 157//59 153//59 154//59 158//59
f 158//60 160//60 159//60 157//60
f 161//61 164//61 163//61 162//61
f 165//62 161//62 162//62 166//62
f 166//63 168//63 167//63 165//63
f 169//64 172//64 171//64 170//64
f 173//65 169//65 170//65 174//65
f 174//66 176//66 175//66 173//66
f 177//29 180//29 179//29 178//29
f 181//28 184//28 183//28 182//28
f 180//67 182//67 183//67 179//67
f 178//68 184//68 181//68 177//68
f 179//69 183//69 184//69 178//69
f 177//70 181//70 182//70 180//70
f 185//71 188//71 187//71 186//71
f 189//72 185//72 186//72 190//72
f 190//73 192//73 191//73 189//73
f 193//74 196//74 195//74 194//74
f 197//75 193//75 194//75 198//75
f 198//76 200//76 199//76 197//76
usemtl Green
f 81//77 82//77 83//77 84//77
f 84//78 83//78 85//78 86//78
f 86//79 85//79 87//79 88//79
f 88//80 87//80 82//80 81//80
f 84//28 86//28 88//28 81//28
