# Blender v2.79 (sub 0) OBJ File: 'temp.blend'
# www.blender.org
mtllib yellowwhiteflower.mtl
o Cube_Cube.001
v 0.000329 0.000802 0.006570
v 0.000329 0.084186 0.006570
v -0.004718 0.000802 0.001523
v -0.004718 0.084186 0.001523
v 0.005901 0.000802 0.000998
v 0.005901 0.084186 0.000998
v 0.000854 0.000802 -0.004048
v 0.000854 0.084186 -0.004048
v 0.001513 0.084187 -0.019539
v -0.011837 0.084187 -0.014009
v -0.017367 0.084187 -0.000659
v -0.011837 0.084187 0.012691
v 0.001513 0.084187 0.018220
v 0.014863 0.084187 0.012691
v 0.020393 0.084187 -0.000659
v 0.014863 0.084187 -0.014009
v -0.007182 0.090225 -0.009355
v 0.001513 0.090225 -0.012956
v -0.010784 0.090225 -0.000659
v -0.007182 0.090225 0.008036
v 0.001513 0.090225 0.011638
v 0.010208 0.090225 0.008036
v 0.013810 0.090225 -0.000659
v 0.010208 0.090225 -0.009355
v 0.001513 0.096765 -0.000659
v 0.008894 0.083072 0.010887
v 0.004904 0.104443 0.051411
v 0.004904 0.101929 0.051811
v -0.006689 0.085586 0.010487
v -0.006689 0.083072 0.010887
v -0.002699 0.104443 0.051411
v -0.002699 0.101929 0.051811
v 0.008894 0.085586 0.010487
v 0.011469 0.093019 0.030762
v 0.011469 0.090506 0.031162
v -0.009264 0.093019 0.030762
v -0.009264 0.090506 0.031162
v -0.009771 0.083072 0.007068
v -0.050294 0.104443 0.003078
v -0.050695 0.101929 0.003078
v -0.009370 0.085586 -0.008515
v -0.009771 0.083072 -0.008515
v -0.050294 0.104443 -0.004525
v -0.050695 0.101929 -0.004525
v -0.009370 0.085586 0.007068
v -0.029646 0.093019 0.009643
v -0.030046 0.090506 0.009643
v -0.029646 0.093019 -0.011090
v -0.030046 0.090506 -0.011090
v -0.005867 0.083072 -0.011499
v -0.001877 0.104443 -0.052023
v -0.001877 0.101929 -0.052423
v 0.009716 0.085586 -0.011099
v 0.009716 0.083072 -0.011499
v 0.005726 0.104443 -0.052023
v 0.005726 0.101929 -0.052423
v -0.005867 0.085586 -0.011099
v -0.008442 0.093019 -0.031374
v -0.008442 0.090506 -0.031775
v 0.012291 0.093019 -0.031374
v 0.012291 0.090506 -0.031775
v 0.012797 0.083072 -0.007680
v 0.053321 0.104443 -0.003690
v 0.053721 0.101929 -0.003690
v 0.012397 0.085586 0.007903
v 0.012797 0.083072 0.007903
v 0.053321 0.104443 0.003913
v 0.053721 0.101929 0.003913
v 0.012397 0.085586 -0.007680
v 0.032672 0.093019 -0.010255
v 0.033073 0.090506 -0.010255
v 0.032672 0.093019 0.010478
v 0.033073 0.090506 0.010478
v -0.001183 0.083072 0.012827
v -0.032659 0.104443 0.038661
v -0.032942 0.101929 0.038944
v -0.011918 0.085586 0.001526
v -0.012201 0.083072 0.001809
v -0.038035 0.104443 0.033285
v -0.038318 0.101929 0.033568
v -0.000900 0.085586 0.012544
v -0.013416 0.093019 0.028702
v -0.013699 0.090506 0.028985
v -0.028076 0.093019 0.014042
v -0.028359 0.090506 0.014325
v -0.011680 0.083072 -0.003071
v -0.037513 0.104443 -0.034547
v -0.037796 0.101929 -0.034830
v -0.000378 0.085586 -0.013807
v -0.000661 0.083072 -0.014089
v -0.032137 0.104443 -0.039923
v -0.032420 0.101929 -0.040206
v -0.011397 0.085586 -0.002788
v -0.027554 0.093019 -0.015304
v -0.027837 0.090506 -0.015587
v -0.012894 0.093019 -0.029964
v -0.013177 0.090506 -0.030247
v 0.004210 0.083072 -0.013439
v 0.035685 0.104443 -0.039273
v 0.035968 0.101929 -0.039556
v 0.014945 0.085586 -0.002138
v 0.015228 0.083072 -0.002421
v 0.041061 0.104443 -0.033897
v 0.041344 0.101929 -0.034180
v 0.003927 0.085586 -0.013157
v 0.016443 0.093019 -0.029314
v 0.016726 0.090506 -0.029597
v 0.031103 0.093019 -0.014654
v 0.031386 0.090506 -0.014937
v 0.014706 0.083072 0.002459
v 0.040540 0.104443 0.033935
v 0.040823 0.101929 0.034218
v 0.003405 0.085586 0.013194
v 0.003688 0.083072 0.013477
v 0.035164 0.104443 0.039311
v 0.035447 0.101929 0.039594
v 0.014423 0.085586 0.002176
v 0.030581 0.093019 0.014692
v 0.030864 0.090506 0.014975
v 0.015921 0.093019 0.029352
v 0.016204 0.090506 0.029635
v 0.001513 0.078648 -0.000659
vn -0.7071 0.0000 0.7071
vn -0.7071 0.0000 -0.7071
vn 0.7071 0.0000 -0.7071
vn 0.7071 0.0000 0.7071
vn 0.0000 -1.0000 0.0000
vn 0.2796 -0.9531 -0.1158
vn 0.1158 -0.9531 0.2796
vn -0.2796 -0.9531 0.1158
vn -0.1158 -0.9531 -0.2796
vn 0.1158 -0.9531 -0.2796
vn 0.2796 -0.9531 0.1158
vn -0.1158 -0.9531 0.2796
vn -0.2796 -0.9531 -0.1158
vn -0.4609 0.8667 0.1909
vn 0.6509 0.7096 -0.2696
vn 0.2696 0.7096 0.6509
vn -0.6509 0.7096 0.2696
vn -0.2696 0.7096 -0.6509
vn 0.2696 0.7096 -0.6509
vn 0.6509 0.7096 0.2696
vn -0.2696 0.7096 0.6509
vn -0.6509 0.7096 -0.2696
vn -0.1909 0.8667 -0.4609
vn 0.1909 0.8667 -0.4609
vn 0.4609 0.8667 0.1909
vn -0.1909 0.8667 0.4609
vn -0.4609 0.8667 -0.1909
vn 0.4609 0.8667 -0.1909
vn 0.1909 0.8667 0.4609
vn 0.0000 1.0000 0.0000
vn 0.0000 0.8750 -0.4841
vn 0.0000 -0.8750 0.4841
vn 0.0000 0.1572 0.9876
vn 0.9589 0.0446 0.2802
vn 0.0000 -0.1572 -0.9876
vn -0.9927 -0.0190 -0.1191
vn -0.9589 0.0446 0.2802
vn 0.9927 -0.0190 -0.1191
vn 0.0000 -0.9389 0.3442
vn 0.0000 0.9389 -0.3442
vn 0.4841 0.8750 0.0000
vn -0.4841 -0.8750 0.0000
vn -0.9876 0.1572 0.0000
vn -0.2802 0.0446 0.9589
vn 0.1191 -0.0190 -0.9927
vn -0.2802 0.0446 -0.9589
vn 0.1191 -0.0190 0.9927
vn -0.3442 -0.9389 0.0000
vn 0.3442 0.9389 0.0000
vn 0.0000 0.8750 0.4841
vn 0.0000 -0.8750 -0.4841
vn 0.0000 0.1572 -0.9876
vn -0.9589 0.0446 -0.2802
vn 0.9927 -0.0190 0.1191
vn 0.9589 0.0446 -0.2802
vn -0.9927 -0.0190 0.1191
vn 0.0000 -0.9389 -0.3442
vn -0.0000 0.9389 0.3442
vn -0.4841 0.8750 -0.0000
vn 0.4841 -0.8750 0.0000
vn 0.9876 0.1572 0.0000
vn 0.2802 0.0446 -0.9589
vn -0.1191 -0.0190 0.9927
vn 0.2802 0.0446 0.9589
vn -0.1191 -0.0190 -0.9927
vn 0.3442 -0.9389 0.0000
vn -0.3442 0.9389 0.0000
vn 0.3423 0.8750 -0.3423
vn -0.3423 -0.8750 0.3423
vn -0.6983 0.1572 0.6983
vn 0.4799 0.0446 0.8762
vn 0.6983 -0.1572 -0.6983
vn -0.6177 -0.0190 -0.7862
vn -0.8762 0.0446 -0.4799
vn 0.7862 -0.0190 0.6177
vn -0.2434 -0.9389 0.2434
vn 0.2434 0.9389 -0.2434
vn 0.3423 0.8750 0.3423
vn -0.3423 -0.8750 -0.3423
vn -0.6983 0.1572 -0.6983
vn -0.8762 0.0446 0.4799
vn 0.7862 -0.0190 -0.6177
vn 0.4799 0.0446 -0.8762
vn -0.6177 -0.0190 0.7862
vn -0.2434 -0.9389 -0.2434
vn 0.2434 0.9389 0.2434
vn -0.3423 0.8750 0.3423
vn 0.3423 -0.8750 -0.3423
vn 0.6983 0.1572 -0.6983
vn -0.4799 0.0446 -0.8762
vn 0.6177 -0.0190 0.7862
vn 0.8762 0.0446 0.4799
vn -0.7862 -0.0190 -0.6177
vn 0.2434 -0.9389 -0.2434
vn -0.2434 0.9389 0.2434
vn -0.3423 0.8750 -0.3423
vn 0.3423 -0.8750 0.3423
vn 0.6983 0.1572 0.6983
vn 0.8762 0.0446 -0.4799
vn -0.7862 -0.0190 0.6177
vn -0.4799 0.0446 0.8762
vn 0.6177 -0.0190 -0.7862
vn 0.2434 -0.9389 0.2434
vn -0.2434 0.9389 -0.2434
usemtl Green
s off
f 1//1 2//1 4//1 3//1
f 3//2 4//2 8//2 7//2
f 7//3 8//3 6//3 5//3
f 5//4 6//4 2//4 1//4
f 3//5 7//5 5//5 1//5
f 15//6 122//6 16//6
f 13//7 122//7 14//7
f 11//8 122//8 12//8
f 9//9 122//9 10//9
f 16//10 122//10 9//10
f 14//11 122//11 15//11
f 12//12 122//12 13//12
f 10//13 122//13 11//13
usemtl Yellow
f 20//14 25//14 19//14
f 16//15 24//15 23//15 15//15
f 14//16 22//16 21//16 13//16
f 12//17 20//17 19//17 11//17
f 10//18 17//18 18//18 9//18
f 9//19 18//19 24//19 16//19
f 15//20 23//20 22//20 14//20
f 13//21 21//21 20//21 12//21
f 11//22 19//22 17//22 10//22
f 17//23 25//23 18//23
f 18//24 25//24 24//24
f 23//25 25//25 22//25
f 21//26 25//26 20//26
f 19//27 25//27 17//27
f 24//28 25//28 23//28
f 22//29 25//29 21//29
usemtl White
f 8//30 4//30 2//30 6//30
f 34//31 36//31 31//31 27//31
f 37//32 35//32 28//32 32//32
f 28//33 27//33 31//33 32//33
f 35//34 34//34 27//34 28//34
f 30//35 29//35 33//35 26//35
f 37//36 36//36 29//36 30//36
f 32//37 31//37 36//37 37//37
f 26//38 33//38 34//38 35//38
f 30//39 26//39 35//39 37//39
f 33//40 29//40 36//40 34//40
f 46//41 48//41 43//41 39//41
f 49//42 47//42 40//42 44//42
f 40//43 39//43 43//43 44//43
f 47//44 46//44 39//44 40//44
f 49//45 48//45 41//45 42//45
f 44//46 43//46 48//46 49//46
f 38//47 45//47 46//47 47//47
f 42//48 38//48 47//48 49//48
f 45//49 41//49 48//49 46//49
f 58//50 60//50 55//50 51//50
f 61//51 59//51 52//51 56//51
f 52//52 51//52 55//52 56//52
f 59//53 58//53 51//53 52//53
f 61//54 60//54 53//54 54//54
f 56//55 55//55 60//55 61//55
f 50//56 57//56 58//56 59//56
f 54//57 50//57 59//57 61//57
f 57//58 53//58 60//58 58//58
f 70//59 72//59 67//59 63//59
f 73//60 71//60 64//60 68//60
f 64//61 63//61 67//61 68//61
f 71//62 70//62 63//62 64//62
f 73//63 72//63 65//63 66//63
f 68//64 67//64 72//64 73//64
f 62//65 69//65 70//65 71//65
f 66//66 62//66 71//66 73//66
f 69//67 65//67 72//67 70//67
f 82//68 84//68 79//68 75//68
f 85//69 83//69 76//69 80//69
f 76//70 75//70 79//70 80//70
f 83//71 82//71 75//71 76//71
f 78//72 77//72 81//72 74//72
f 85//73 84//73 77//73 78//73
f 80//74 79//74 84//74 85//74
f 74//75 81//75 82//75 83//75
f 78//76 74//76 83//76 85//76
f 81//77 77//77 84//77 82//77
f 94//78 96//78 91//78 87//78
f 97//79 95//79 88//79 92//79
f 88//80 87//80 91//80 92//80
f 95//81 94//81 87//81 88//81
f 97//82 96//82 89//82 90//82
f 92//83 91//83 96//83 97//83
f 86//84 93//84 94//84 95//84
f 90//85 86//85 95//85 97//85
f 93//86 89//86 96//86 94//86
f 106//87 108//87 103//87 99//87
f 109//88 107//88 100//88 104//88
f 100//89 99//89 103//89 104//89
f 107//90 106//90 99//90 100//90
f 109//91 108//91 101//91 102//91
f 104//92 103//92 108//92 109//92
f 98//93 105//93 106//93 107//93
f 102//94 98//94 107//94 109//94
f 105//95 101//95 108//95 106//95
f 118//96 120//96 115//96 111//96
f 121//97 119//97 112//97 116//97
f 112//98 111//98 115//98 116//98
f 119//99 118//99 111//99 112//99
f 121//100 120//100 113//100 114//100
f 116//101 115//101 120//101 121//101
f 110//102 117//102 118//102 119//102
f 114//103 110//103 119//103 121//103
f 117//104 113//104 120//104 118//104
