# Blender v2.92.0 OBJ File: 'character_student_head.blend'
# www.blender.org
mtllib character_student_head.mtl
o Cube
v -0.109383 -0.326280 0.054090
v -0.110038 -0.326280 -0.036819
v -0.109383 -0.298935 0.054090
v -0.110038 -0.298935 -0.036819
v -0.299906 -0.221104 0.279810
v -0.303794 -0.221104 -0.259770
v -0.299906 0.249831 0.279810
v -0.303794 0.249831 -0.259770
v -0.392792 -0.083570 -0.325968
v -0.392792 0.112297 -0.325968
v -0.387941 -0.083570 0.347284
v -0.387941 0.112297 0.347284
v -0.390642 -0.026314 -0.027637
v -0.390642 0.055041 -0.027637
v -0.390090 -0.026314 0.048953
v -0.390090 0.055041 0.048953
v -0.464715 -0.026314 -0.027104
v -0.464715 0.055041 -0.027104
v -0.464163 -0.026314 0.049487
v -0.464163 0.055041 0.049487
v -0.291395 -0.023328 -0.326699
v -0.291395 0.052056 -0.326699
v -0.164512 0.052056 -0.327613
v -0.164512 -0.023328 -0.327613
v -0.291498 -0.023328 -0.340954
v -0.291498 0.052056 -0.340954
v -0.164615 -0.023328 -0.341869
v -0.164615 0.052056 -0.341869
v -0.262178 -0.005908 -0.341166
v -0.262178 0.034636 -0.341166
v -0.193935 -0.005908 -0.341657
v -0.193935 0.034636 -0.341657
v -0.262178 -0.005908 -0.341166
v -0.262178 0.034636 -0.341166
v -0.193935 -0.005908 -0.341657
v -0.193935 0.034636 -0.341657
v -0.262258 -0.005908 -0.352234
v -0.262258 0.034636 -0.352234
v -0.194015 -0.005908 -0.352726
v -0.194015 0.034636 -0.352726
v 0.110151 -0.326280 0.052508
v 0.109496 -0.326280 -0.038401
v 0.000384 -0.326280 0.053299
v -0.000271 -0.326280 -0.037610
v 0.110151 -0.298935 0.052508
v 0.109496 -0.298935 -0.038401
v 0.000384 -0.298935 0.053299
v -0.000271 -0.298935 -0.037610
v 0.303907 -0.221104 0.275459
v 0.300019 -0.221104 -0.264121
v 0.002001 -0.221104 0.277634
v -0.001888 -0.221104 -0.261945
v 0.303907 0.249831 0.275459
v 0.300019 0.249831 -0.264121
v 0.002001 0.249831 0.277634
v -0.001888 0.249831 -0.261945
v 0.002482 -0.083570 0.344470
v 0.002482 0.112297 0.344470
v 0.388054 -0.083570 -0.331595
v 0.388054 0.112297 -0.331595
v -0.002369 0.112297 -0.328781
v -0.002369 -0.083570 -0.328781
v 0.392905 -0.083570 0.341657
v 0.392905 0.112297 0.341657
v 0.390203 -0.026314 -0.033264
v 0.390203 0.055041 -0.033264
v 0.390755 -0.026314 0.043326
v 0.390755 0.055041 0.043326
v 0.464276 -0.026314 -0.033798
v 0.464276 0.055041 -0.033798
v 0.464828 -0.026314 0.042793
v 0.464828 0.055041 0.042793
v 0.286657 -0.023328 -0.330864
v 0.286657 0.052056 -0.330864
v 0.159774 0.052056 -0.329950
v 0.159774 -0.023328 -0.329950
v 0.286554 -0.023328 -0.345120
v 0.286554 0.052056 -0.345120
v 0.159671 -0.023328 -0.344205
v 0.159671 0.052056 -0.344205
v 0.257234 -0.005908 -0.344909
v 0.257234 0.034636 -0.344909
v 0.188991 -0.005908 -0.344417
v 0.188991 0.034636 -0.344417
v 0.257234 -0.005908 -0.344909
v 0.257234 0.034636 -0.344909
v 0.188991 -0.005908 -0.344417
v 0.188991 0.034636 -0.344417
v 0.257154 -0.005908 -0.355977
v 0.257154 0.034636 -0.355977
v 0.188911 -0.005908 -0.355485
v 0.188911 0.034636 -0.355485
vt 0.285156 0.425781
vt 0.285156 0.425781
vt 0.285156 0.425781
vt 0.285156 0.425781
vt 0.285156 0.425781
vt 0.285156 0.425781
vt 0.285156 0.425781
vt 0.285156 0.425781
vt 0.285156 0.425781
vt 0.285156 0.425781
vt 0.285156 0.425781
vt 0.285156 0.425781
vt 0.285156 0.425781
vt 0.285156 0.425781
vt 0.285156 0.425781
vt 0.285156 0.425781
vt 0.285156 0.425781
vt 0.285156 0.425781
vt 0.285156 0.425781
vt 0.285156 0.425781
vt 0.285156 0.425781
vt 0.285156 0.425781
vt 0.285156 0.425781
vt 0.285156 0.425781
vt 0.285156 0.425781
vt 0.285156 0.425781
vt 0.285156 0.425781
vt 0.285156 0.425781
vt 0.285156 0.425781
vt 0.285156 0.425781
vt 0.285156 0.425781
vt 0.285156 0.425781
vt 0.066406 0.929688
vt 0.066406 0.929688
vt 0.066406 0.929688
vt 0.066406 0.929688
vt 0.066406 0.929688
vt 0.066406 0.929688
vt 0.066406 0.929688
vt 0.066406 0.929688
vt 0.066406 0.929688
vt 0.066406 0.929688
vt 0.066406 0.929688
vt 0.066406 0.929688
vt 0.066406 0.929688
vt 0.066406 0.929688
vt 0.066406 0.929688
vt 0.066406 0.929688
vt 0.066406 0.929688
vt 0.066406 0.929688
vt 0.921875 0.933594
vt 0.921875 0.933594
vt 0.921875 0.933594
vt 0.921875 0.933594
vt 0.066406 0.929688
vt 0.066406 0.929688
vt 0.285156 0.425781
vt 0.285156 0.425781
vt 0.285156 0.425781
vt 0.285156 0.425781
vt 0.285156 0.425781
vt 0.285156 0.425781
vt 0.285156 0.425781
vt 0.285156 0.425781
vt 0.285156 0.425781
vt 0.285156 0.425781
vt 0.285156 0.425781
vt 0.285156 0.425781
vt 0.285156 0.425781
vt 0.285156 0.425781
vt 0.285156 0.425781
vt 0.285156 0.425781
vt 0.285156 0.425781
vt 0.285156 0.425781
vt 0.285156 0.425781
vt 0.285156 0.425781
vt 0.066406 0.929688
vt 0.066406 0.929688
vt 0.066406 0.929688
vt 0.066406 0.929688
vt 0.066406 0.929688
vt 0.066406 0.929688
vt 0.066406 0.929688
vt 0.066406 0.929688
vt 0.066406 0.929688
vt 0.066406 0.929688
vt 0.066406 0.929688
vt 0.066406 0.929688
vt 0.066406 0.929688
vt 0.066406 0.929688
vt 0.066406 0.929688
vt 0.066406 0.929688
vt 0.066406 0.929688
vt 0.066406 0.929688
vt 0.921875 0.933594
vt 0.921875 0.933594
vt 0.921875 0.933594
vt 0.921875 0.933594
vt 0.066406 0.929688
vt 0.066406 0.929688
vn 0.0072 0.0000 1.0000
vn -0.0024 -0.9448 -0.3278
vn -0.0072 0.0000 -1.0000
vn -1.0000 0.0000 0.0072
vn -0.0065 0.4371 -0.8994
vn -0.3754 -0.9268 0.0027
vn 0.0024 -0.9448 0.3278
vn 0.0000 1.0000 0.0000
vn -0.8409 0.5412 0.0061
vn 0.0065 0.4371 0.8994
vn 0.0065 -0.4371 0.8994
vn -0.8409 -0.5412 0.0061
vn -0.0065 -0.4371 -0.8994
vn 1.0000 0.0000 -0.0072
vn 0.0000 -1.0000 0.0000
vn 0.0000 0.0000 1.0000
vn 0.3754 -0.9268 -0.0027
vn 0.8409 0.5412 -0.0061
vn 0.8409 -0.5412 -0.0061
usemtl Material
s off
f 1/1/1 43/2/1 47/3/1 3/4/1
f 48/5/2 4/6/2 6/7/2 52/8/2
f 44/9/3 2/10/3 4/6/3 48/5/3
f 2/10/4 1/1/4 3/4/4 4/6/4
f 61/11/5 10/12/5 8/13/5 56/14/5
f 4/6/6 3/4/6 5/15/6 6/7/6
f 3/4/7 47/3/7 51/16/7 5/15/7
f 7/17/8 55/18/8 56/14/8 8/13/8
f 10/12/9 12/19/9 7/17/9 8/13/9
f 12/19/10 58/20/10 55/18/10 7/17/10
f 5/15/11 51/16/11 57/21/11 11/22/11
f 11/22/1 57/21/1 58/20/1 12/19/1
f 6/7/12 5/15/12 11/22/12 9/23/12
f 9/23/4 11/22/4 12/19/4 10/12/4
f 52/8/13 6/7/13 9/23/13 62/24/13
f 62/24/3 9/23/3 10/12/3 61/11/3
f 13/25/14 14/26/14 16/27/14 15/28/14
f 17/29/4 19/30/4 20/31/4 18/32/4
f 16/27/8 14/26/8 18/32/8 20/31/8
f 15/28/1 16/27/1 20/31/1 19/30/1
f 13/25/15 15/28/15 19/30/15 17/29/15
f 14/26/3 13/25/3 17/29/3 18/32/3
f 24/33/1 23/34/1 22/35/1 21/36/1
f 27/37/3 25/38/3 26/39/3 28/40/3
f 24/33/15 21/36/15 25/38/15 27/37/15
f 21/36/4 22/35/4 26/39/4 25/38/4
f 22/35/8 23/34/8 28/40/8 26/39/8
f 23/34/14 24/33/14 27/37/14 28/40/14
f 31/41/1 32/42/1 30/43/1 29/44/1
f 35/45/15 33/46/15 37/47/15 39/48/15
f 30/43/16 32/42/16 36/49/16 34/50/16
f 32/42/16 31/41/16 35/45/16 36/49/16
f 31/41/16 29/44/16 33/46/16 35/45/16
f 29/44/16 30/43/16 34/50/16 33/46/16
f 39/51/3 37/52/3 38/53/3 40/54/3
f 33/46/4 34/50/4 38/55/4 37/47/4
f 34/50/8 36/49/8 40/56/8 38/55/8
f 36/49/14 35/45/14 39/48/14 40/56/14
f 41/57/1 45/58/1 47/3/1 43/2/1
f 48/5/2 52/8/2 50/59/2 46/60/2
f 44/9/3 48/5/3 46/60/3 42/61/3
f 42/61/14 46/60/14 45/58/14 41/57/14
f 61/11/5 56/14/5 54/62/5 60/63/5
f 46/60/17 50/59/17 49/64/17 45/58/17
f 45/58/7 49/64/7 51/16/7 47/3/7
f 53/65/8 54/62/8 56/14/8 55/18/8
f 60/63/18 54/62/18 53/65/18 64/66/18
f 64/66/10 53/65/10 55/18/10 58/20/10
f 49/64/11 63/67/11 57/21/11 51/16/11
f 63/67/1 64/66/1 58/20/1 57/21/1
f 50/59/19 59/68/19 63/67/19 49/64/19
f 59/68/14 60/63/14 64/66/14 63/67/14
f 52/8/13 62/24/13 59/68/13 50/59/13
f 62/24/3 61/11/3 60/63/3 59/68/3
f 65/69/4 67/70/4 68/71/4 66/72/4
f 69/73/14 70/74/14 72/75/14 71/76/14
f 68/71/8 72/75/8 70/74/8 66/72/8
f 67/70/1 71/76/1 72/75/1 68/71/1
f 65/69/15 69/73/15 71/76/15 67/70/15
f 66/72/3 70/74/3 69/73/3 65/69/3
f 76/77/1 73/78/1 74/79/1 75/80/1
f 79/81/3 80/82/3 78/83/3 77/84/3
f 76/77/15 79/81/15 77/84/15 73/78/15
f 73/78/14 77/84/14 78/83/14 74/79/14
f 74/79/8 78/83/8 80/82/8 75/80/8
f 75/80/4 80/82/4 79/81/4 76/77/4
f 83/85/1 81/86/1 82/87/1 84/88/1
f 87/89/15 91/90/15 89/91/15 85/92/15
f 82/87/16 86/93/16 88/94/16 84/88/16
f 84/88/16 88/94/16 87/89/16 83/85/16
f 83/85/16 87/89/16 85/92/16 81/86/16
f 81/86/16 85/92/16 86/93/16 82/87/16
f 91/95/3 92/96/3 90/97/3 89/98/3
f 85/92/14 89/91/14 90/99/14 86/93/14
f 86/93/8 90/99/8 92/100/8 88/94/8
f 88/94/4 92/100/4 91/90/4 87/89/4
