# Blender v2.92.0 OBJ File: 'character_teacher_head.blend'
# www.blender.org
mtllib character_teacher_head.mtl
o Cube
v -0.148761 -1.628755 0.066568
v -0.053355 -0.329077 0.052371
v -0.053375 -0.329077 -0.038541
v -0.053355 -0.301732 0.052371
v -0.053375 -0.301732 -0.038541
v -0.245450 -0.223901 0.276754
v -0.245569 -0.223901 -0.262839
v -0.245450 0.247034 0.276754
v -0.245569 0.247034 -0.262839
v -0.334102 -0.086367 -0.329658
v -0.334102 0.109500 -0.329658
v -0.333954 -0.086367 0.343612
v -0.333954 0.109500 0.343612
v -0.334037 -0.029111 -0.031319
v -0.334037 0.052244 -0.031319
v -0.334020 -0.029111 0.045273
v -0.334020 0.052244 0.045273
v -0.408111 -0.029111 -0.031303
v -0.408111 0.052244 -0.031303
v -0.408094 -0.029111 0.045290
v -0.408094 0.052244 0.045290
v -0.232703 -0.026125 -0.329680
v -0.232703 0.049258 -0.329680
v -0.105817 0.049258 -0.329708
v -0.105817 -0.026125 -0.329708
v -0.232706 -0.026125 -0.343936
v -0.232706 0.049258 -0.343936
v -0.105820 -0.026125 -0.343964
v -0.105820 0.049258 -0.343964
v -0.203385 -0.008706 -0.343942
v -0.203385 0.031839 -0.343942
v -0.135140 -0.008706 -0.343957
v -0.135140 0.031839 -0.343957
v -0.203385 -0.008706 -0.343942
v -0.203385 0.031839 -0.343942
v -0.135140 -0.008706 -0.343957
v -0.135140 0.031839 -0.343957
v -0.203388 -0.008706 -0.355011
v -0.203388 0.031839 -0.355011
v -0.135143 -0.008706 -0.355026
v -0.135143 0.031839 -0.355026
v -0.270958 0.335520 0.372030
v -0.271101 0.335520 -0.274832
v -0.365725 0.183861 -0.346247
v -0.365566 0.118140 0.373342
v -0.246563 0.265136 0.372030
v -0.246705 0.265136 -0.274832
v -0.341330 0.118140 -0.346247
v -0.341171 0.118140 0.373342
v -0.290043 0.252826 0.373954
v -0.290185 0.252826 -0.272907
v -0.384810 0.105830 -0.344323
v -0.384651 0.105830 0.375266
v -0.376694 0.215743 0.371347
v -0.376837 0.215743 -0.275514
v -0.471461 0.068747 -0.346929
v -0.471303 0.068747 0.372660
v -0.354894 -0.042696 0.344069
v -0.355052 -0.042696 -0.375519
v -0.393657 -0.079780 0.341463
v -0.393815 -0.079780 -0.378126
v -0.246557 0.265379 0.399650
v -0.341165 0.118383 0.400962
v -0.341171 -0.062017 0.374924
v -0.341165 -0.061774 0.402544
v -0.333954 -0.086367 0.343612
v -0.333954 0.109500 0.343612
v -0.341171 -0.132372 0.375542
v -0.341165 -0.132130 0.403162
v -0.245762 0.335520 0.310879
v -0.245877 0.335520 -0.213691
v -0.245762 0.364047 0.310879
v -0.245877 0.364047 -0.213691
v -0.185913 0.364047 0.180798
v -0.185972 0.364047 -0.083635
v -0.185913 0.387314 0.180798
v -0.185972 0.387314 -0.083635
v -0.355128 -0.161908 0.481041
v -0.355286 -0.161908 -0.238548
v -0.393891 -0.198992 0.478434
v -0.394049 -0.198992 -0.241155
v -0.286518 -0.233624 0.481025
v -0.286676 -0.233624 -0.238563
v -0.325281 -0.270708 0.478419
v -0.325439 -0.270708 -0.241170
v -0.341171 -0.132372 0.375542
v -0.341165 -0.132130 0.403162
v -0.341171 -0.240370 0.376490
v -0.341165 -0.240128 0.404111
v 0.140101 -1.628755 0.066505
v 0.044689 -0.329077 0.052350
v 0.044669 -0.329077 -0.038562
v -0.004333 -0.329077 0.052360
v -0.004353 -0.329077 -0.038552
v 0.044689 -0.301732 0.052350
v 0.044669 -0.301732 -0.038562
v -0.004333 -0.301732 0.052360
v -0.004353 -0.301732 -0.038552
v 0.236883 -0.223901 0.276648
v 0.236764 -0.223901 -0.262946
v -0.004283 -0.223901 0.276701
v -0.004402 -0.223901 -0.262892
v 0.236883 0.247034 0.276648
v 0.236764 0.247034 -0.262946
v -0.004283 0.247034 0.276701
v -0.004402 0.247034 -0.262892
v -0.004269 -0.086367 0.343539
v -0.004269 0.109500 0.343539
v 0.325268 -0.086367 -0.329803
v 0.325268 0.109500 -0.329803
v -0.004417 0.109500 -0.329730
v -0.004417 -0.086367 -0.329730
v 0.325417 -0.086367 0.343466
v 0.325417 0.109500 0.343466
v 0.325334 -0.029111 -0.031465
v 0.325334 0.052244 -0.031465
v 0.325351 -0.029111 0.045128
v 0.325351 0.052244 0.045128
v 0.399408 -0.029111 -0.031481
v 0.399408 0.052244 -0.031481
v 0.399425 -0.029111 0.045112
v 0.399425 0.052244 0.045112
v 0.223869 -0.026125 -0.329781
v 0.223869 0.049258 -0.329781
v 0.096982 0.049258 -0.329753
v 0.096982 -0.026125 -0.329753
v 0.223865 -0.026125 -0.344037
v 0.223865 0.049258 -0.344037
v 0.096979 -0.026125 -0.344009
v 0.096979 0.049258 -0.344009
v 0.194545 -0.008706 -0.344030
v 0.194545 0.031839 -0.344030
v 0.126300 -0.008706 -0.344015
v 0.126300 0.031839 -0.344015
v 0.194545 -0.008706 -0.344030
v 0.194545 0.031839 -0.344030
v 0.126300 -0.008706 -0.344015
v 0.126300 0.031839 -0.344015
v 0.194542 -0.008706 -0.355099
v 0.194542 0.031839 -0.355099
v 0.126297 -0.008706 -0.355084
v 0.126297 0.031839 -0.355084
v 0.262433 0.335520 0.371912
v 0.262291 0.335520 -0.274949
v -0.004262 0.335520 0.371976
v -0.004405 0.335520 -0.274885
v -0.004262 0.118140 0.373267
v 0.356884 0.183861 -0.346406
v -0.004421 0.183861 -0.346321
v 0.357042 0.118140 0.373182
v 0.238038 0.265136 0.371923
v 0.237895 0.265136 -0.274939
v 0.332488 0.118140 -0.346396
v 0.332647 0.118140 0.373193
v 0.281519 0.252826 0.373828
v 0.281376 0.252826 -0.273033
v 0.375969 0.105830 -0.344490
v 0.376128 0.105830 0.375098
v 0.368169 0.215743 0.371183
v 0.368026 0.215743 -0.275678
v 0.462619 0.068747 -0.347135
v 0.462778 0.068747 0.372454
v 0.346356 -0.042696 0.343915
v 0.346198 -0.042696 -0.375674
v 0.385118 -0.079780 0.341291
v 0.384960 -0.079780 -0.378298
v -0.004256 0.265379 0.399596
v -0.004256 0.118383 0.400888
v 0.238044 0.265379 0.399543
v 0.332653 0.118383 0.400813
v -0.004262 -0.062017 0.374850
v 0.332647 -0.062017 0.374775
v -0.004256 -0.061774 0.402470
v 0.332653 -0.061774 0.402396
v -0.004269 -0.086367 0.343539
v -0.004269 0.109500 0.343539
v 0.325417 -0.086367 0.343466
v 0.325417 0.109500 0.343466
v -0.004262 -0.132372 0.375468
v 0.332647 -0.132372 0.375393
v -0.004256 -0.132130 0.403088
v 0.332654 -0.132130 0.403014
v 0.237210 0.335520 0.310772
v 0.237094 0.335520 -0.213797
v -0.004276 0.335520 0.310830
v -0.004392 0.335520 -0.213740
v 0.237210 0.364047 0.310772
v 0.237094 0.364047 -0.213797
v -0.004276 0.364047 0.310830
v -0.004392 0.364047 -0.213740
v 0.177304 0.364047 0.180718
v 0.177246 0.364047 -0.083715
v -0.004305 0.364047 0.180760
v -0.004363 0.364047 -0.083673
v 0.177304 0.387314 0.180718
v 0.177246 0.387314 -0.083715
v -0.004305 0.387314 0.180760
v -0.004363 0.387314 -0.083673
v 0.346651 -0.161908 0.480886
v 0.346492 -0.161908 -0.238703
v 0.385413 -0.198992 0.478262
v 0.385254 -0.198992 -0.241327
v 0.278041 -0.233624 0.480901
v 0.277882 -0.233624 -0.238688
v 0.316803 -0.270708 0.478277
v 0.316644 -0.270708 -0.241311
v -0.004262 -0.132372 0.375468
v 0.332647 -0.132372 0.375393
v -0.004256 -0.132130 0.403088
v 0.332654 -0.132130 0.403014
v -0.004261 -0.240370 0.376416
v 0.332648 -0.240370 0.376342
v -0.004255 -0.240128 0.404036
v 0.332654 -0.240128 0.403962
vt 0.285156 0.425781
vt 0.285156 0.425781
vt 0.285156 0.425781
vt 0.285156 0.425781
vt 0.285156 0.425781
vt 0.285156 0.425781
vt 0.285156 0.425781
vt 0.285156 0.425781
vt 0.285156 0.425781
vt 0.285156 0.425781
vt 0.285156 0.425781
vt 0.285156 0.425781
vt 0.285156 0.425781
vt 0.285156 0.425781
vt 0.285156 0.425781
vt 0.285156 0.425781
vt 0.285156 0.425781
vt 0.285156 0.425781
vt 0.285156 0.425781
vt 0.285156 0.425781
vt 0.285156 0.425781
vt 0.285156 0.425781
vt 0.285156 0.425781
vt 0.285156 0.425781
vt 0.285156 0.425781
vt 0.285156 0.425781
vt 0.285156 0.425781
vt 0.285156 0.425781
vt 0.285156 0.425781
vt 0.285156 0.425781
vt 0.285156 0.425781
vt 0.285156 0.425781
vt 0.066406 0.929688
vt 0.066406 0.929688
vt 0.066406 0.929688
vt 0.066406 0.929688
vt 0.066406 0.929688
vt 0.066406 0.929688
vt 0.066406 0.929688
vt 0.066406 0.929688
vt 0.066406 0.929688
vt 0.066406 0.929688
vt 0.066406 0.929688
vt 0.066406 0.929688
vt 0.066406 0.929688
vt 0.066406 0.929688
vt 0.066406 0.929688
vt 0.066406 0.929688
vt 0.066406 0.929688
vt 0.066406 0.929688
vt 0.921875 0.933594
vt 0.921875 0.933594
vt 0.921875 0.933594
vt 0.921875 0.933594
vt 0.066406 0.929688
vt 0.066406 0.929688
vt 0.691406 0.695312
vt 0.691406 0.695312
vt 0.691406 0.695312
vt 0.691406 0.695312
vt 0.691406 0.695312
vt 0.691406 0.695312
vt 0.691406 0.695312
vt 0.000000 0.000000
vt 0.000000 0.000000
vt 0.000000 0.000000
vt 0.000000 0.000000
vt 0.691406 0.695312
vt 0.691406 0.695312
vt 0.691406 0.695312
vt 0.691406 0.695312
vt 0.691406 0.695312
vt 0.691406 0.695312
vt 0.691406 0.695312
vt 0.691406 0.695312
vt 0.691406 0.695312
vt 0.691406 0.695312
vt 0.699219 0.406250
vt 0.699219 0.406250
vt 0.699219 0.406250
vt 0.699219 0.406250
vt 0.691406 0.695312
vt 0.691406 0.695312
vt 0.691406 0.695312
vt 0.691406 0.695312
vt 0.691406 0.695312
vt 0.691406 0.695312
vt 0.691406 0.695312
vt 0.691406 0.695312
vt 0.691406 0.695312
vt 0.691406 0.695312
vt 0.691406 0.695312
vt 0.691406 0.695312
vt 0.691406 0.695312
vt 0.691406 0.695312
vt 0.691406 0.695312
vt 0.691406 0.695312
vt 0.691406 0.695312
vt 0.285156 0.425781
vt 0.285156 0.425781
vt 0.285156 0.425781
vt 0.285156 0.425781
vt 0.691406 0.695312
vt 0.691406 0.695312
vt 0.000000 0.000000
vt 0.000000 0.000000
vt 0.691406 0.695312
vt 0.699219 0.406250
vt 0.699219 0.406250
vt 0.699219 0.406250
vt 0.699219 0.406250
vt 0.691406 0.695312
vt 0.691406 0.695312
vt 0.691406 0.695312
vt 0.691406 0.695312
vt 0.691406 0.695312
vt 0.691406 0.695312
vt 0.691406 0.695312
vt 0.691406 0.695312
vt 0.691406 0.695312
vt 0.691406 0.695312
vt 0.691406 0.695312
vt 0.691406 0.695312
vt 0.691406 0.695312
vt 0.691406 0.695312
vt 0.691406 0.695312
vt 0.691406 0.695312
vt 0.691406 0.695312
vt 0.691406 0.695312
vt 0.691406 0.695312
vt 0.691406 0.695312
vt 0.691406 0.695312
vt 0.691406 0.695312
vt 0.691406 0.695312
vt 0.691406 0.695312
vt 0.691406 0.695312
vt 0.000000 0.000000
vt 0.000000 0.000000
vt 0.000000 0.000000
vt 0.000000 0.000000
vt 0.000000 0.000000
vt 0.000000 0.000000
vt 0.691406 0.695312
vt 0.285156 0.425781
vt 0.285156 0.425781
vt 0.285156 0.425781
vt 0.285156 0.425781
vt 0.285156 0.425781
vt 0.285156 0.425781
vt 0.285156 0.425781
vt 0.285156 0.425781
vt 0.285156 0.425781
vt 0.285156 0.425781
vt 0.285156 0.425781
vt 0.285156 0.425781
vt 0.285156 0.425781
vt 0.285156 0.425781
vt 0.285156 0.425781
vt 0.285156 0.425781
vt 0.285156 0.425781
vt 0.285156 0.425781
vt 0.285156 0.425781
vt 0.285156 0.425781
vt 0.066406 0.929688
vt 0.066406 0.929688
vt 0.066406 0.929688
vt 0.066406 0.929688
vt 0.066406 0.929688
vt 0.066406 0.929688
vt 0.066406 0.929688
vt 0.066406 0.929688
vt 0.066406 0.929688
vt 0.066406 0.929688
vt 0.066406 0.929688
vt 0.066406 0.929688
vt 0.066406 0.929688
vt 0.066406 0.929688
vt 0.066406 0.929688
vt 0.066406 0.929688
vt 0.066406 0.929688
vt 0.066406 0.929688
vt 0.921875 0.933594
vt 0.921875 0.933594
vt 0.921875 0.933594
vt 0.921875 0.933594
vt 0.066406 0.929688
vt 0.066406 0.929688
vt 0.691406 0.695312
vt 0.691406 0.695312
vt 0.691406 0.695312
vt 0.691406 0.695312
vt 0.000000 0.000000
vt 0.000000 0.000000
vt 0.691406 0.695312
vt 0.691406 0.695312
vt 0.691406 0.695312
vt 0.691406 0.695312
vt 0.691406 0.695312
vt 0.691406 0.695312
vt 0.691406 0.695312
vt 0.691406 0.695312
vt 0.691406 0.695312
vt 0.691406 0.695312
vt 0.699219 0.406250
vt 0.699219 0.406250
vt 0.699219 0.406250
vt 0.699219 0.406250
vt 0.691406 0.695312
vt 0.691406 0.695312
vt 0.691406 0.695312
vt 0.691406 0.695312
vt 0.691406 0.695312
vt 0.691406 0.695312
vt 0.691406 0.695312
vt 0.691406 0.695312
vt 0.691406 0.695312
vt 0.691406 0.695312
vt 0.691406 0.695312
vt 0.691406 0.695312
vt 0.691406 0.695312
vt 0.285156 0.425781
vt 0.285156 0.425781
vt 0.691406 0.695312
vt 0.000000 0.000000
vt 0.691406 0.695312
vt 0.699219 0.406250
vt 0.699219 0.406250
vt 0.691406 0.695312
vt 0.691406 0.695312
vt 0.691406 0.695312
vt 0.691406 0.695312
vt 0.691406 0.695312
vt 0.691406 0.695312
vt 0.691406 0.695312
vt 0.691406 0.695312
vt 0.691406 0.695312
vt 0.691406 0.695312
vt 0.691406 0.695312
vt 0.691406 0.695312
vt 0.691406 0.695312
vt 0.691406 0.695312
vt 0.691406 0.695312
vt 0.691406 0.695312
vt 0.691406 0.695312
vt 0.000000 0.000000
vt 0.000000 0.000000
vt 0.000000 0.000000
vn 0.0002 0.0000 1.0000
vn -0.0001 -0.9448 -0.3278
vn -0.0002 0.0000 -1.0000
vn -1.0000 0.0000 0.0002
vn -0.0002 0.4371 -0.8994
vn -0.3754 -0.9268 0.0001
vn 0.0001 -0.9448 0.3278
vn 0.0000 1.0000 0.0000
vn -0.8409 0.5412 0.0002
vn 0.0002 0.4371 0.8994
vn 0.0002 -0.4371 0.8994
vn -0.8409 -0.5412 0.0002
vn -0.0002 -0.4371 -0.8994
vn 1.0000 0.0000 -0.0002
vn 0.0000 -1.0000 -0.0000
vn 0.0000 0.0000 1.0000
vn -0.0002 0.4261 -0.9047
vn -0.8913 0.4529 0.0220
vn -0.0002 -0.0088 -1.0000
vn 0.8409 -0.5412 -0.0002
vn -0.0467 0.0390 0.9981
vn -0.1850 0.5232 -0.8319
vn 0.0510 -0.0239 0.9984
vn -0.2724 0.9622 0.0001
vn 0.2724 -0.9622 -0.0001
vn -0.3934 0.9193 0.0001
vn -0.0668 0.1819 -0.9810
vn -0.2021 0.5302 -0.8234
vn 0.6083 -0.5992 -0.5205
vn 0.0668 -0.1819 0.9810
vn -0.8862 -0.4633 0.0002
vn 0.9805 0.1965 -0.0002
vn 0.0002 0.0088 1.0000
vn -0.5200 0.2758 0.8084
vn 0.0002 0.3664 0.9304
vn -0.9130 -0.0583 0.4039
vn -0.7226 -0.6913 0.0002
vn -1.0000 0.0022 0.0002
vn -0.6083 0.5992 0.5205
vn 1.0000 -0.0022 -0.0002
vn 0.6913 -0.7226 -0.0002
vn -0.0350 -0.0337 0.9988
vn 0.7226 0.6913 -0.0002
vn 0.0350 0.0337 -0.9988
vn 0.0000 -1.0000 0.0088
vn 0.3754 -0.9268 -0.0001
vn 0.8409 0.5412 -0.0002
vn 0.8913 0.4529 0.0216
vn 0.0471 0.0390 0.9981
vn 0.1846 0.5232 -0.8320
vn -0.0505 -0.0239 0.9984
vn 0.2724 0.9622 -0.0001
vn -0.2724 -0.9622 0.0001
vn 0.3934 0.9193 -0.0001
vn 0.0664 0.1819 -0.9811
vn 0.2018 0.5302 -0.8235
vn -0.6085 -0.5992 -0.5202
vn -0.0664 -0.1819 0.9811
vn 0.8862 -0.4633 -0.0002
vn -0.9805 0.1965 0.0002
vn 0.5203 0.2758 0.8082
vn 0.9131 -0.0583 0.4035
vn 0.7226 -0.6913 -0.0002
vn 1.0000 0.0022 -0.0002
vn 0.6085 0.5992 0.5202
vn -1.0000 -0.0022 0.0002
vn -0.6913 -0.7226 0.0002
vn 0.0354 -0.0337 0.9988
vn -0.7226 0.6913 0.0002
vn -0.0354 0.0337 -0.9988
usemtl Material
s off
f 2/1/1 93/2/1 97/3/1 4/4/1
f 98/5/2 5/6/2 7/7/2 102/8/2
f 94/9/3 3/10/3 5/6/3 98/5/3
f 3/10/4 2/1/4 4/4/4 5/6/4
f 111/11/5 11/12/5 9/13/5 106/14/5
f 5/6/6 4/4/6 6/15/6 7/7/6
f 4/4/7 97/3/7 101/16/7 6/15/7
f 8/17/8 105/18/8 106/14/8 9/13/8
f 11/12/9 13/19/9 8/17/9 9/13/9
f 13/19/10 108/20/10 105/18/10 8/17/10
f 6/15/11 101/16/11 107/21/11 12/22/11
f 12/22/1 107/21/1 108/20/1 13/19/1
f 7/7/12 6/15/12 12/22/12 10/23/12
f 10/23/4 12/22/4 13/19/4 11/12/4
f 102/8/13 7/7/13 10/23/13 112/24/13
f 112/24/3 10/23/3 11/12/3 111/11/3
f 14/25/14 15/26/14 17/27/14 16/28/14
f 18/29/4 20/30/4 21/31/4 19/32/4
f 17/27/8 15/26/8 19/32/8 21/31/8
f 16/28/1 17/27/1 21/31/1 20/30/1
f 14/25/15 16/28/15 20/30/15 18/29/15
f 15/26/3 14/25/3 18/29/3 19/32/3
f 25/33/1 24/34/1 23/35/1 22/36/1
f 28/37/3 26/38/3 27/39/3 29/40/3
f 25/33/15 22/36/15 26/38/15 28/37/15
f 22/36/4 23/35/4 27/39/4 26/38/4
f 23/35/8 24/34/8 29/40/8 27/39/8
f 24/34/14 25/33/14 28/37/14 29/40/14
f 32/41/1 33/42/1 31/43/1 30/44/1
f 36/45/15 34/46/15 38/47/15 40/48/15
f 31/43/16 33/42/16 37/49/16 35/50/16
f 33/42/16 32/41/16 36/45/16 37/49/16
f 32/41/16 30/44/16 34/46/16 36/45/16
f 30/44/16 31/43/16 35/50/16 34/46/16
f 40/51/3 38/52/3 39/53/3 41/54/3
f 34/46/4 35/50/4 39/55/4 38/47/4
f 35/50/8 37/49/8 41/56/8 39/55/8
f 37/49/14 36/45/14 40/48/14 41/56/14
f 149/57/17 44/58/17 43/59/17 146/60/17
f 42/61/8 145/62/8 146/60/8 43/59/8
f 44/58/18 45/63/18 42/61/18 43/59/18
f 45/64/19 147/65/19 171/66/19 64/67/19
f 48/68/20 47/69/20 46/70/20 49/71/20
f 53/72/21 50/73/21 54/74/21 57/75/21
f 47/69/22 48/68/22 52/76/22 51/77/22
f 49/71/23 46/70/23 50/73/23 53/72/23
f 46/78/24 47/79/24 51/80/24 50/81/24
f 48/68/25 49/71/25 53/72/25 52/76/25
f 56/82/9 57/75/9 54/74/9 55/83/9
f 50/73/26 51/77/26 55/83/26 54/74/26
f 56/82/27 52/76/27 59/84/27 61/85/27
f 51/77/28 52/76/28 56/82/28 55/83/28
f 61/85/29 59/84/29 79/86/29 81/87/29
f 53/72/30 57/75/30 60/88/30 58/89/30
f 57/75/31 56/82/31 61/85/31 60/88/31
f 52/76/32 53/72/32 58/89/32 59/84/32
f 63/90/33 168/91/33 167/92/33 62/93/33
f 42/61/34 45/63/34 63/90/34 62/93/34
f 145/62/35 42/61/35 62/93/35 167/92/35
f 173/94/33 65/95/33 69/96/33 181/97/33
f 63/90/36 45/63/36 64/98/36 65/95/36
f 168/91/33 63/90/33 65/95/33 173/94/33
f 66/99/1 175/100/1 176/101/1 67/102/1
f 181/97/16 69/96/16 87/103/16 209/104/16
f 64/67/19 171/66/19 179/105/19 68/106/19
f 65/95/4 64/98/4 68/107/4 69/96/4
f 70/108/15 71/109/15 186/110/15 185/111/15
f 72/112/8 189/113/8 193/114/8 74/115/8
f 70/116/1 185/117/1 189/113/1 72/112/1
f 186/118/3 71/119/3 73/120/3 190/121/3
f 71/119/4 70/116/4 72/112/4 73/120/4
f 194/122/3 75/123/3 77/124/3 198/125/3
f 190/121/8 73/120/8 75/123/8 194/122/8
f 73/120/8 72/112/8 74/115/8 75/123/8
f 76/126/8 197/127/8 198/125/8 77/124/8
f 75/123/4 74/115/4 76/126/4 77/124/4
f 74/115/1 193/114/1 197/127/1 76/126/1
f 80/128/37 81/87/37 85/129/37 84/130/37
f 60/88/38 61/85/38 81/87/38 80/128/38
f 58/89/39 60/88/39 80/128/39 78/131/39
f 59/84/40 58/89/40 78/131/40 79/86/40
f 83/132/41 82/133/41 84/130/41 85/129/41
f 78/131/42 80/128/42 84/130/42 82/133/42
f 79/86/43 78/131/43 82/133/43 83/132/43
f 81/87/44 79/86/44 83/132/44 85/129/44
f 87/103/4 86/134/4 88/135/4 89/136/4
f 68/106/16 179/105/16 207/137/16 86/138/16
f 69/96/16 68/107/16 86/134/16 87/103/16
f 88/139/45 211/140/45 213/141/45 89/142/45
f 209/104/33 87/103/33 89/136/33 213/143/33
f 86/138/19 207/137/19 211/140/19 88/139/19
f 91/144/1 95/145/1 97/3/1 93/2/1
f 98/5/2 102/8/2 100/146/2 96/147/2
f 94/9/3 98/5/3 96/147/3 92/148/3
f 92/148/14 96/147/14 95/145/14 91/144/14
f 111/11/5 106/14/5 104/149/5 110/150/5
f 96/147/46 100/146/46 99/151/46 95/145/46
f 95/145/7 99/151/7 101/16/7 97/3/7
f 103/152/8 104/149/8 106/14/8 105/18/8
f 110/150/47 104/149/47 103/152/47 114/153/47
f 114/153/10 103/152/10 105/18/10 108/20/10
f 99/151/11 113/154/11 107/21/11 101/16/11
f 113/154/1 114/153/1 108/20/1 107/21/1
f 100/146/20 109/155/20 113/154/20 99/151/20
f 109/155/14 110/150/14 114/153/14 113/154/14
f 102/8/13 112/24/13 109/155/13 100/146/13
f 112/24/3 111/11/3 110/150/3 109/155/3
f 115/156/4 117/157/4 118/158/4 116/159/4
f 119/160/14 120/161/14 122/162/14 121/163/14
f 118/158/8 122/162/8 120/161/8 116/159/8
f 117/157/1 121/163/1 122/162/1 118/158/1
f 115/156/15 119/160/15 121/163/15 117/157/15
f 116/159/3 120/161/3 119/160/3 115/156/3
f 126/164/1 123/165/1 124/166/1 125/167/1
f 129/168/3 130/169/3 128/170/3 127/171/3
f 126/164/15 129/168/15 127/171/15 123/165/15
f 123/165/14 127/171/14 128/170/14 124/166/14
f 124/166/8 128/170/8 130/169/8 125/167/8
f 125/167/4 130/169/4 129/168/4 126/164/4
f 133/172/1 131/173/1 132/174/1 134/175/1
f 137/176/15 141/177/15 139/178/15 135/179/15
f 132/174/16 136/180/16 138/181/16 134/175/16
f 134/175/16 138/181/16 137/176/16 133/172/16
f 133/172/16 137/176/16 135/179/16 131/173/16
f 131/173/16 135/179/16 136/180/16 132/174/16
f 141/182/3 142/183/3 140/184/3 139/185/3
f 135/179/14 139/178/14 140/186/14 136/180/14
f 136/180/8 140/186/8 142/187/8 138/181/8
f 138/181/4 142/187/4 141/177/4 137/176/4
f 149/57/17 146/60/17 144/188/17 148/189/17
f 143/190/8 144/188/8 146/60/8 145/62/8
f 148/189/48 144/188/48 143/190/48 150/191/48
f 150/192/19 172/193/19 171/66/19 147/65/19
f 153/194/12 154/195/12 151/196/12 152/197/12
f 158/198/49 162/199/49 159/200/49 155/201/49
f 152/197/50 156/202/50 157/203/50 153/194/50
f 154/195/51 158/198/51 155/201/51 151/196/51
f 151/204/52 155/205/52 156/206/52 152/207/52
f 153/194/53 157/203/53 158/198/53 154/195/53
f 161/208/47 160/209/47 159/200/47 162/199/47
f 155/201/54 159/200/54 160/209/54 156/202/54
f 161/208/55 166/210/55 164/211/55 157/203/55
f 156/202/56 160/209/56 161/208/56 157/203/56
f 166/210/57 202/212/57 200/213/57 164/211/57
f 158/198/58 163/214/58 165/215/58 162/199/58
f 162/199/59 165/215/59 166/210/59 161/208/59
f 157/203/60 164/211/60 163/214/60 158/198/60
f 170/216/33 169/217/33 167/92/33 168/91/33
f 143/190/61 169/217/61 170/216/61 150/191/61
f 145/62/35 167/92/35 169/217/35 143/190/35
f 173/94/33 181/97/33 182/218/33 174/219/33
f 170/216/62 174/219/62 172/220/62 150/191/62
f 168/91/33 173/94/33 174/219/33 170/216/33
f 177/221/1 178/222/1 176/101/1 175/100/1
f 181/97/16 209/104/16 210/223/16 182/218/16
f 172/193/19 180/224/19 179/105/19 171/66/19
f 174/219/14 182/218/14 180/225/14 172/220/14
f 183/226/15 185/111/15 186/110/15 184/227/15
f 187/228/8 191/229/8 193/114/8 189/113/8
f 183/230/1 187/228/1 189/113/1 185/117/1
f 186/118/3 190/121/3 188/231/3 184/232/3
f 184/232/14 188/231/14 187/228/14 183/230/14
f 194/122/3 198/125/3 196/233/3 192/234/3
f 190/121/8 194/122/8 192/234/8 188/231/8
f 188/231/8 192/234/8 191/229/8 187/228/8
f 195/235/8 196/233/8 198/125/8 197/127/8
f 192/234/14 196/233/14 195/235/14 191/229/14
f 191/229/1 195/235/1 197/127/1 193/114/1
f 201/236/63 205/237/63 206/238/63 202/212/63
f 165/215/64 201/236/64 202/212/64 166/210/64
f 163/214/65 199/239/65 201/236/65 165/215/65
f 164/211/66 200/213/66 199/239/66 163/214/66
f 204/240/67 206/238/67 205/237/67 203/241/67
f 199/239/68 203/241/68 205/237/68 201/236/68
f 200/213/69 204/240/69 203/241/69 199/239/69
f 202/212/70 206/238/70 204/240/70 200/213/70
f 210/223/14 214/242/14 212/243/14 208/244/14
f 180/224/16 208/245/16 207/137/16 179/105/16
f 182/218/16 210/223/16 208/244/16 180/225/16
f 212/246/45 214/247/45 213/141/45 211/140/45
f 209/104/33 213/143/33 214/242/33 210/223/33
f 208/245/19 212/246/19 211/140/19 207/137/19
