# Blender v2.92.0 OBJ File: 'character_student_body.blend'
# www.blender.org
mtllib character_student_body.mtl
o Cube
v 0.171785 1.260479 -0.095158
v 0.042903 0.601146 -0.095158
v 0.171785 1.260479 0.095158
v 0.042903 0.601146 0.095158
v 0.171785 1.040701 -0.095158
v 0.200588 0.820923 -0.095158
v 0.171785 1.040701 0.095158
v 0.200588 0.820923 0.095158
v 0.171785 0.636310 -0.095158
v 0.171785 0.636310 0.095158
v 0.152292 0.538731 -0.059632
v 0.068574 0.538972 -0.059632
v 0.152292 0.538731 0.059632
v 0.068574 0.538972 0.059632
v 0.145249 0.284866 -0.059632
v 0.061531 0.285107 -0.059632
v 0.145249 0.284866 0.059632
v 0.061531 0.285107 0.059632
v 0.145180 0.260987 -0.059632
v 0.061462 0.261228 -0.059632
v 0.145180 0.260987 0.059632
v 0.061462 0.261228 0.059632
v 0.145112 0.237213 -0.059632
v 0.061394 0.237454 -0.059632
v 0.145112 0.237213 0.059632
v 0.061394 0.237454 0.059632
v 0.144632 0.070501 -0.059632
v 0.060914 0.070742 -0.059632
v 0.144632 0.070501 0.059632
v 0.060914 0.070742 0.059632
v 0.144431 0.000911 -0.059632
v 0.060713 0.001152 -0.059632
v 0.144431 0.000911 0.059632
v 0.060713 0.001152 0.059632
v 0.144632 0.070501 0.116261
v 0.060914 0.070742 0.116261
v 0.144431 0.000911 0.116261
v 0.060713 0.001152 0.116261
v 0.144632 0.030702 0.185194
v 0.060914 0.030944 0.185194
v 0.144431 0.000911 0.185194
v 0.060713 0.001152 0.185194
v 0.198371 1.221710 -0.061586
v 0.198371 1.221710 0.061586
v 0.198371 1.079470 -0.061586
v 0.198371 1.079470 0.061586
v 0.244433 1.219190 -0.061158
v 0.234289 1.221011 0.061582
v 0.214350 1.080169 -0.061582
v 0.204206 1.081989 0.061158
v 0.365002 1.166847 -0.054524
v 0.359291 1.175426 0.068216
v 0.243878 1.092275 -0.054948
v 0.238167 1.100854 0.067792
v 0.371167 1.129765 -0.039353
v 0.366592 1.136637 0.058974
v 0.274136 1.070025 -0.039692
v 0.269560 1.076897 0.058635
v 0.394340 1.084271 -0.036555
v 0.392127 1.092225 0.061772
v 0.283549 1.057641 -0.036894
v 0.281336 1.065595 0.061433
v 0.435208 0.851185 -0.004055
v 0.433563 0.857095 0.069002
v 0.352889 0.831398 -0.004308
v 0.351245 0.837308 0.068749
v 0.453121 0.776577 0.002383
v 0.451477 0.782487 0.075440
v 0.370803 0.756790 0.002131
v 0.369159 0.762700 0.075188
v 0.049022 1.300589 -0.045456
v 0.049022 1.300589 0.045456
v -0.171785 1.260479 -0.095158
v -0.042903 0.601146 -0.095158
v -0.171785 1.260479 0.095158
v -0.042903 0.601146 0.095158
v 0.000000 0.601146 -0.095158
v 0.000000 1.260479 0.137106
v 0.000000 0.601146 0.095158
v 0.000000 1.260479 -0.151691
v -0.171785 1.040701 -0.095158
v -0.200588 0.820923 -0.095158
v -0.171785 1.040701 0.095158
v -0.200588 0.820923 0.095158
v 0.000000 1.040701 0.137106
v 0.000000 0.820923 0.137106
v 0.000000 1.040701 -0.151691
v 0.000000 0.820923 -0.151691
v -0.171785 0.636310 -0.095158
v -0.171785 0.636310 0.095158
v 0.000000 0.636310 0.137106
v 0.000000 0.636310 -0.151691
v -0.152292 0.538731 -0.059632
v -0.068574 0.538972 -0.059632
v -0.152292 0.538731 0.059632
v -0.068574 0.538972 0.059632
v -0.145249 0.284866 -0.059632
v -0.061531 0.285107 -0.059632
v -0.145249 0.284866 0.059632
v -0.061531 0.285107 0.059632
v -0.145180 0.260987 -0.059632
v -0.061462 0.261228 -0.059632
v -0.145180 0.260987 0.059632
v -0.061462 0.261228 0.059632
v -0.145112 0.237213 -0.059632
v -0.061394 0.237454 -0.059632
v -0.145112 0.237213 0.059632
v -0.061394 0.237454 0.059632
v -0.144632 0.070501 -0.059632
v -0.060914 0.070742 -0.059632
v -0.144632 0.070501 0.059632
v -0.060914 0.070742 0.059632
v -0.144431 0.000911 -0.059632
v -0.060713 0.001152 -0.059632
v -0.144431 0.000911 0.059632
v -0.060713 0.001152 0.059632
v -0.144632 0.070501 0.116261
v -0.060914 0.070742 0.116261
v -0.144431 0.000911 0.116261
v -0.060713 0.001152 0.116261
v -0.144632 0.030702 0.185194
v -0.060914 0.030944 0.185194
v -0.144431 0.000911 0.185194
v -0.060713 0.001152 0.185194
v -0.198371 1.221710 -0.061586
v -0.198371 1.221710 0.061586
v -0.198371 1.079470 -0.061586
v -0.198371 1.079470 0.061586
v -0.244433 1.219190 -0.061158
v -0.234289 1.221011 0.061582
v -0.214350 1.080169 -0.061582
v -0.204206 1.081989 0.061158
v -0.365002 1.166847 -0.054524
v -0.359291 1.175426 0.068216
v -0.243878 1.092275 -0.054948
v -0.238167 1.100854 0.067792
v -0.371167 1.129765 -0.039353
v -0.366592 1.136637 0.058974
v -0.274136 1.070025 -0.039692
v -0.269560 1.076897 0.058635
v -0.394340 1.084271 -0.036555
v -0.392127 1.092225 0.061772
v -0.283549 1.057641 -0.036894
v -0.281336 1.065595 0.061433
v -0.435208 0.851185 -0.004055
v -0.433563 0.857095 0.069002
v -0.352889 0.831398 -0.004308
v -0.351245 0.837308 0.068749
v -0.453121 0.776577 0.002383
v -0.451477 0.782487 0.075440
v -0.370803 0.756790 0.002131
v -0.369159 0.762700 0.075188
v -0.049022 1.300589 -0.045456
v -0.049022 1.300589 0.045456
v 0.000000 1.300589 -0.045456
v 0.000000 1.300589 0.045456
vt 0.937500 0.441406
vt 0.937500 0.441406
vt 0.937500 0.441406
vt 0.937500 0.441406
vt 0.820312 0.683594
vt 0.820312 0.683594
vt 0.820312 0.683594
vt 0.820312 0.683594
vt 0.820312 0.683594
vt 0.820312 0.683594
vt 0.820312 0.683594
vt 0.820312 0.683594
vt 0.820312 0.683594
vt 0.820312 0.683594
vt 0.820312 0.683594
vt 0.820312 0.683594
vt 0.820312 0.683594
vt 0.820312 0.683594
vt 0.820312 0.683594
vt 0.820312 0.683594
vt 0.820312 0.683594
vt 0.820312 0.683594
vt 0.820312 0.683594
vt 0.820312 0.683594
vt 0.937500 0.441406
vt 0.937500 0.441406
vt 0.937500 0.441406
vt 0.937500 0.441406
vt 0.937500 0.441406
vt 0.937500 0.441406
vt 0.937500 0.441406
vt 0.937500 0.441406
vt 0.937500 0.441406
vt 0.937500 0.441406
vt 0.937500 0.441406
vt 0.937500 0.441406
vt 0.937500 0.441406
vt 0.937500 0.441406
vt 0.937500 0.441406
vt 0.937500 0.441406
vt 0.937500 0.441406
vt 0.937500 0.441406
vt 0.937500 0.441406
vt 0.937500 0.441406
vt 0.937500 0.441406
vt 0.937500 0.441406
vt 0.953125 0.941406
vt 0.957031 0.945312
vt 0.957031 0.945312
vt 0.957031 0.945312
vt 0.937500 0.441406
vt 0.937500 0.441406
vt 0.949219 0.945312
vt 0.949219 0.945312
vt 0.949219 0.945312
vt 0.949219 0.945312
vt 0.949219 0.945312
vt 0.949219 0.945312
vt 0.957031 0.945312
vt 0.957031 0.945312
vt 0.957031 0.945312
vt 0.957031 0.945312
vt 0.949219 0.945312
vt 0.949219 0.945312
vt 0.949219 0.945312
vt 0.957031 0.945312
vt 0.957031 0.945312
vt 0.953125 0.941406
vt 0.953125 0.941406
vt 0.953125 0.941406
vt 0.953125 0.941406
vt 0.957031 0.945312
vt 0.957031 0.945312
vt 0.949219 0.945312
vt 0.949219 0.945312
vt 0.953125 0.941406
vt 0.953125 0.941406
vt 0.949219 0.945312
vt 0.820312 0.683594
vt 0.820312 0.683594
vt 0.820312 0.683594
vt 0.820312 0.683594
vt 0.820312 0.683594
vt 0.820312 0.683594
vt 0.820312 0.683594
vt 0.820312 0.683594
vt 0.820312 0.683594
vt 0.820312 0.683594
vt 0.820312 0.683594
vt 0.820312 0.683594
vt 0.820312 0.683594
vt 0.820312 0.683594
vt 0.820312 0.683594
vt 0.820312 0.683594
vt 0.820312 0.683594
vt 0.820312 0.683594
vt 0.820312 0.683594
vt 0.820312 0.683594
vt 0.285156 0.425781
vt 0.285156 0.425781
vt 0.285156 0.425781
vt 0.285156 0.425781
vt 0.820312 0.683594
vt 0.820312 0.683594
vt 0.285156 0.425781
vt 0.285156 0.425781
vt 0.285156 0.425781
vt 0.285156 0.425781
vt 0.820312 0.683594
vt 0.820312 0.683594
vt 0.937500 0.441406
vt 0.937500 0.441406
vt 0.820312 0.683594
vt 0.820312 0.683594
vt 0.820312 0.683594
vt 0.820312 0.683594
vt 0.820312 0.683594
vt 0.820312 0.683594
vt 0.820312 0.683594
vt 0.820312 0.683594
vt 0.820312 0.683594
vt 0.820312 0.683594
vt 0.820312 0.683594
vt 0.937500 0.441406
vt 0.937500 0.441406
vt 0.937500 0.441406
vt 0.937500 0.441406
vt 0.937500 0.441406
vt 0.937500 0.441406
vt 0.937500 0.441406
vt 0.937500 0.441406
vt 0.937500 0.441406
vt 0.937500 0.441406
vt 0.937500 0.441406
vt 0.937500 0.441406
vt 0.937500 0.441406
vt 0.937500 0.441406
vt 0.937500 0.441406
vt 0.937500 0.441406
vt 0.937500 0.441406
vt 0.937500 0.441406
vt 0.937500 0.441406
vt 0.937500 0.441406
vt 0.953125 0.941406
vt 0.957031 0.945312
vt 0.957031 0.945312
vt 0.957031 0.945312
vt 0.937500 0.441406
vt 0.937500 0.441406
vt 0.949219 0.945312
vt 0.949219 0.945312
vt 0.949219 0.945312
vt 0.949219 0.945312
vt 0.949219 0.945312
vt 0.949219 0.945312
vt 0.957031 0.945312
vt 0.957031 0.945312
vt 0.957031 0.945312
vt 0.957031 0.945312
vt 0.949219 0.945312
vt 0.949219 0.945312
vt 0.949219 0.945312
vt 0.957031 0.945312
vt 0.957031 0.945312
vt 0.953125 0.941406
vt 0.953125 0.941406
vt 0.953125 0.941406
vt 0.953125 0.941406
vt 0.957031 0.945312
vt 0.957031 0.945312
vt 0.949219 0.945312
vt 0.949219 0.945312
vt 0.953125 0.941406
vt 0.953125 0.941406
vt 0.949219 0.945312
vt 0.820312 0.683594
vt 0.820312 0.683594
vt 0.820312 0.683594
vt 0.820312 0.683594
vt 0.820312 0.683594
vt 0.820312 0.683594
vt 0.820312 0.683594
vt 0.820312 0.683594
vt 0.820312 0.683594
vt 0.820312 0.683594
vt 0.820312 0.683594
vt 0.820312 0.683594
vt 0.820312 0.683594
vt 0.820312 0.683594
vt 0.820312 0.683594
vt 0.820312 0.683594
vt 0.820312 0.683594
vt 0.820312 0.683594
vt 0.820312 0.683594
vt 0.820312 0.683594
vt 0.285156 0.425781
vt 0.285156 0.425781
vt 0.285156 0.425781
vt 0.285156 0.425781
vt 0.820312 0.683594
vt 0.820312 0.683594
vt 0.285156 0.425781
vt 0.285156 0.425781
vt 0.285156 0.425781
vt 0.285156 0.425781
vt 0.820312 0.683594
vn 0.0000 -1.0000 0.0000
vn 0.8247 0.5656 0.0000
vn 0.3126 0.0000 -0.9499
vn 0.1003 0.9147 -0.3916
vn 0.2372 0.0000 0.9715
vn 0.2198 -0.0171 0.9754
vn 0.2198 0.0144 0.9754
vn 0.2905 -0.0227 -0.9566
vn 0.2905 0.0190 -0.9567
vn 0.9880 -0.1542 0.0000
vn 0.9915 0.1299 0.0000
vn 0.9806 -0.1959 -0.0000
vn 0.1595 -0.7794 -0.6059
vn 0.1399 -0.6837 0.7163
vn -0.9996 0.0277 0.0000
vn 0.0663 -0.4033 -0.9126
vn -0.9243 -0.3816 0.0000
vn 0.0663 -0.4033 0.9126
vn 0.0000 0.0000 -1.0000
vn 0.9996 -0.0277 -0.0000
vn -0.0000 0.0000 1.0000
vn 1.0000 -0.0029 -0.0000
vn -1.0000 0.0029 0.0000
vn -0.0029 -1.0000 0.0000
vn 1.0000 -0.0040 -0.0012
vn 0.0029 1.0000 0.0000
vn 0.0025 0.8660 0.5000
vn -1.0000 0.0040 0.0012
vn 0.0105 -0.0026 0.9999
vn 0.7840 0.0000 0.6208
vn 0.8247 -0.5656 0.0000
vn 0.7840 0.0000 -0.6208
vn -0.0749 0.0491 0.9960
vn 0.0393 0.9992 -0.0058
vn 0.1462 -0.9892 0.0134
vn 0.0070 0.0008 -1.0000
vn -0.6013 -0.7986 0.0278
vn 0.3711 0.9285 -0.0154
vn 0.4263 -0.9022 0.0658
vn 0.0749 -0.0491 -0.9960
vn -0.0351 0.0766 0.9964
vn 0.2123 -0.3396 -0.9163
vn 0.1245 -0.2077 0.9702
vn 0.9836 0.1772 0.0334
vn 0.9847 0.1738 0.0081
vn 0.8794 0.4761 -0.0055
vn -0.7479 -0.6633 0.0242
vn 0.0351 -0.0766 -0.9964
vn -0.9723 -0.2337 -0.0030
vn -0.9562 -0.2927 0.0022
vn 0.0348 -0.1320 -0.9906
vn -0.0100 0.0290 0.9995
vn 0.2326 -0.9690 0.0836
vn 0.0224 -0.0806 -0.9965
vn -0.0224 0.0806 0.9965
vn 0.9723 0.2337 0.0030
vn 0.3106 0.9506 0.0000
vn 0.0829 0.8959 0.4364
vn -0.8247 0.5656 0.0000
vn -0.3126 0.0000 -0.9499
vn -0.1003 0.9147 -0.3916
vn -0.2372 0.0000 0.9715
vn -0.2198 -0.0171 0.9754
vn -0.2198 0.0144 0.9754
vn -0.2905 -0.0227 -0.9566
vn -0.2905 0.0190 -0.9567
vn -0.9880 -0.1542 0.0000
vn -0.9915 0.1299 0.0000
vn -0.9806 -0.1959 0.0000
vn -0.1595 -0.7794 -0.6059
vn -0.1399 -0.6837 0.7163
vn 0.9996 0.0277 0.0000
vn -0.0663 -0.4033 -0.9126
vn 0.9243 -0.3816 0.0000
vn -0.0663 -0.4033 0.9126
vn -0.9996 -0.0277 -0.0000
vn -1.0000 -0.0029 -0.0000
vn 1.0000 0.0029 0.0000
vn 0.0029 -1.0000 0.0000
vn -1.0000 -0.0040 -0.0012
vn -0.0029 1.0000 0.0000
vn -0.0025 0.8660 0.5000
vn 1.0000 0.0040 0.0012
vn -0.0105 -0.0026 0.9999
vn -0.7840 0.0000 0.6208
vn -0.8247 -0.5656 0.0000
vn -0.7840 0.0000 -0.6208
vn 0.0749 0.0491 0.9960
vn -0.0393 0.9992 -0.0058
vn -0.1462 -0.9892 0.0134
vn -0.0070 0.0008 -1.0000
vn 0.6013 -0.7986 0.0278
vn -0.3711 0.9285 -0.0154
vn -0.4263 -0.9022 0.0658
vn -0.0749 -0.0491 -0.9960
vn 0.0351 0.0766 0.9964
vn -0.2123 -0.3396 -0.9163
vn -0.1245 -0.2077 0.9702
vn -0.9836 0.1772 0.0334
vn -0.9847 0.1738 0.0081
vn -0.8794 0.4761 -0.0055
vn 0.7479 -0.6633 0.0242
vn -0.0351 -0.0766 -0.9964
vn 0.9723 -0.2337 -0.0030
vn 0.9562 -0.2927 0.0022
vn -0.0348 -0.1320 -0.9906
vn 0.0100 0.0290 0.9995
vn -0.2326 -0.9690 0.0836
vn -0.0224 -0.0806 -0.9965
vn 0.0224 0.0806 0.9965
vn -0.9723 0.2337 0.0030
vn -0.3106 0.9506 0.0000
vn -0.0829 0.8959 0.4364
usemtl Material
s off
f 77/1/1 2/2/1 4/3/1 79/4/1
f 1/5/2 3/6/2 44/7/2 43/8/2
f 87/9/3 80/10/3 1/5/3 5/11/3
f 1/5/4 80/10/4 155/12/4 71/13/4
f 7/14/5 3/6/5 78/15/5 85/16/5
f 10/17/6 8/18/6 86/19/6 91/20/6
f 8/18/7 7/14/7 85/16/7 86/19/7
f 92/21/8 88/22/8 6/23/8 9/24/8
f 88/22/9 87/9/9 5/11/9 6/23/9
f 9/24/10 6/23/10 8/18/10 10/17/10
f 6/23/11 5/11/11 7/14/11 8/18/11
f 9/25/12 10/26/12 13/27/12 11/28/12
f 77/1/13 92/29/13 9/25/13 2/2/13
f 4/3/14 10/26/14 91/30/14 79/4/14
f 14/31/15 12/32/15 16/33/15 18/34/15
f 2/2/16 9/25/16 11/28/16 12/32/16
f 4/3/17 2/2/17 12/32/17 14/31/17
f 10/26/18 4/3/18 14/31/18 13/27/18
f 16/33/19 15/35/19 19/36/19 20/37/19
f 12/32/19 11/28/19 15/35/19 16/33/19
f 11/28/20 13/27/20 17/38/20 15/35/20
f 13/27/21 14/31/21 18/34/21 17/38/21
f 19/36/22 21/39/22 25/40/22 23/41/22
f 15/35/22 17/38/22 21/39/22 19/36/22
f 17/38/21 18/34/21 22/42/21 21/39/21
f 18/34/23 16/33/23 20/37/23 22/42/23
f 26/43/23 24/44/23 28/45/23 30/46/23
f 21/39/21 22/42/21 26/43/21 25/40/21
f 22/42/23 20/37/23 24/44/23 26/43/23
f 20/37/19 19/36/19 23/41/19 24/44/19
f 27/47/22 29/48/22 33/49/22 31/50/22
f 24/44/19 23/41/19 27/51/19 28/45/19
f 23/41/22 25/40/22 29/52/22 27/51/22
f 25/40/21 26/43/21 30/46/21 29/52/21
f 32/53/24 31/54/24 33/55/24 34/56/24
f 34/56/24 33/55/24 37/57/24 38/58/24
f 30/59/23 28/60/23 32/61/23 34/62/23
f 28/60/19 27/47/19 31/50/19 32/61/19
f 37/57/25 35/63/25 39/64/25 41/65/25
f 30/59/23 34/62/23 38/66/23 36/67/23
f 29/68/26 30/69/26 36/70/26 35/71/26
f 33/49/22 29/48/22 35/72/22 37/73/22
f 39/64/21 40/74/21 42/75/21 41/65/21
f 35/71/27 36/70/27 40/76/27 39/77/27
f 36/78/28 38/58/28 42/75/28 40/74/28
f 38/58/24 37/57/24 41/65/24 42/75/24
f 44/7/29 46/79/29 50/80/29 48/81/29
f 3/6/30 7/14/30 46/79/30 44/7/30
f 7/14/31 5/11/31 45/82/31 46/79/31
f 5/11/32 1/5/32 43/8/32 45/82/32
f 48/81/33 50/80/33 54/83/33 52/84/33
f 43/8/34 44/7/34 48/81/34 47/85/34
f 46/79/35 45/82/35 49/86/35 50/80/35
f 45/82/36 43/8/36 47/85/36 49/86/36
f 54/83/37 53/87/37 57/88/37 58/89/37
f 47/85/38 48/81/38 52/84/38 51/90/38
f 50/80/39 49/86/39 53/87/39 54/83/39
f 49/86/40 47/85/40 51/90/40 53/87/40
f 56/91/41 58/89/41 62/92/41 60/93/41
f 53/87/42 51/90/42 55/94/42 57/88/42
f 52/84/43 54/83/43 58/89/43 56/91/43
f 51/90/44 52/84/44 56/91/44 55/94/44
f 59/95/45 60/93/45 64/96/45 63/97/45
f 55/94/46 56/91/46 60/93/46 59/95/46
f 58/89/47 57/88/47 61/98/47 62/92/47
f 57/88/48 55/94/48 59/95/48 61/98/48
f 66/99/49 65/100/49 69/101/49 70/102/49
f 62/92/50 61/98/50 65/103/50 66/104/50
f 61/98/51 59/95/51 63/97/51 65/103/51
f 60/93/52 62/92/52 66/104/52 64/96/52
f 69/101/53 67/105/53 68/106/53 70/102/53
f 65/100/54 63/107/54 67/105/54 69/101/54
f 64/108/55 66/99/55 70/102/55 68/106/55
f 63/107/56 64/108/56 68/106/56 67/105/56
f 3/6/57 1/5/57 71/13/57 72/109/57
f 78/15/58 3/6/58 72/109/58 156/110/58
f 77/1/1 79/4/1 76/111/1 74/112/1
f 73/113/59 125/114/59 126/115/59 75/116/59
f 87/9/60 81/117/60 73/113/60 80/10/60
f 73/113/61 153/118/61 155/12/61 80/10/61
f 83/119/62 85/16/62 78/15/62 75/116/62
f 90/120/63 91/20/63 86/19/63 84/121/63
f 84/121/64 86/19/64 85/16/64 83/119/64
f 92/21/65 89/122/65 82/123/65 88/22/65
f 88/22/66 82/123/66 81/117/66 87/9/66
f 89/122/67 90/120/67 84/121/67 82/123/67
f 82/123/68 84/121/68 83/119/68 81/117/68
f 89/124/69 93/125/69 95/126/69 90/127/69
f 77/1/70 74/112/70 89/124/70 92/29/70
f 76/111/71 79/4/71 91/30/71 90/127/71
f 96/128/72 100/129/72 98/130/72 94/131/72
f 74/112/73 94/131/73 93/125/73 89/124/73
f 76/111/74 96/128/74 94/131/74 74/112/74
f 90/127/75 95/126/75 96/128/75 76/111/75
f 98/130/19 102/132/19 101/133/19 97/134/19
f 94/131/19 98/130/19 97/134/19 93/125/19
f 93/125/76 97/134/76 99/135/76 95/126/76
f 95/126/21 99/135/21 100/129/21 96/128/21
f 101/133/77 105/136/77 107/137/77 103/138/77
f 97/134/77 101/133/77 103/138/77 99/135/77
f 99/135/21 103/138/21 104/139/21 100/129/21
f 100/129/78 104/139/78 102/132/78 98/130/78
f 108/140/78 112/141/78 110/142/78 106/143/78
f 103/138/21 107/137/21 108/140/21 104/139/21
f 104/139/78 108/140/78 106/143/78 102/132/78
f 102/132/19 106/143/19 105/136/19 101/133/19
f 109/144/77 113/145/77 115/146/77 111/147/77
f 106/143/19 110/142/19 109/148/19 105/136/19
f 105/136/77 109/148/77 111/149/77 107/137/77
f 107/137/21 111/149/21 112/141/21 108/140/21
f 114/150/79 116/151/79 115/152/79 113/153/79
f 116/151/79 120/154/79 119/155/79 115/152/79
f 112/156/78 116/157/78 114/158/78 110/159/78
f 110/159/19 114/158/19 113/145/19 109/144/19
f 119/155/80 123/160/80 121/161/80 117/162/80
f 112/156/78 118/163/78 120/164/78 116/157/78
f 111/165/81 117/166/81 118/167/81 112/168/81
f 115/146/77 119/169/77 117/170/77 111/147/77
f 121/161/21 123/160/21 124/171/21 122/172/21
f 117/166/82 121/173/82 122/174/82 118/167/82
f 118/175/83 122/172/83 124/171/83 120/154/83
f 120/154/79 124/171/79 123/160/79 119/155/79
f 126/115/84 130/176/84 132/177/84 128/178/84
f 75/116/85 126/115/85 128/178/85 83/119/85
f 83/119/86 128/178/86 127/179/86 81/117/86
f 81/117/87 127/179/87 125/114/87 73/113/87
f 130/176/88 134/180/88 136/181/88 132/177/88
f 125/114/89 129/182/89 130/176/89 126/115/89
f 128/178/90 132/177/90 131/183/90 127/179/90
f 127/179/91 131/183/91 129/182/91 125/114/91
f 136/181/92 140/184/92 139/185/92 135/186/92
f 129/182/93 133/187/93 134/180/93 130/176/93
f 132/177/94 136/181/94 135/186/94 131/183/94
f 131/183/95 135/186/95 133/187/95 129/182/95
f 138/188/96 142/189/96 144/190/96 140/184/96
f 135/186/97 139/185/97 137/191/97 133/187/97
f 134/180/98 138/188/98 140/184/98 136/181/98
f 133/187/99 137/191/99 138/188/99 134/180/99
f 141/192/100 145/193/100 146/194/100 142/189/100
f 137/191/101 141/192/101 142/189/101 138/188/101
f 140/184/102 144/190/102 143/195/102 139/185/102
f 139/185/103 143/195/103 141/192/103 137/191/103
f 148/196/104 152/197/104 151/198/104 147/199/104
f 144/190/105 148/200/105 147/201/105 143/195/105
f 143/195/106 147/201/106 145/193/106 141/192/106
f 142/189/107 146/194/107 148/200/107 144/190/107
f 151/198/108 152/197/108 150/202/108 149/203/108
f 147/199/109 151/198/109 149/203/109 145/204/109
f 146/205/110 150/202/110 152/197/110 148/196/110
f 145/204/111 149/203/111 150/202/111 146/205/111
f 75/116/112 154/206/112 153/118/112 73/113/112
f 78/15/113 156/110/113 154/206/113 75/116/113
