# Blender v2.92.0 OBJ File: 'character_teacher_head.blend'
# www.blender.org
mtllib character_teacher_head.mtl
o Cube
v -0.148761 -1.628755 0.066568
v -0.053355 -0.329077 0.052371
v -0.053375 -0.329077 -0.038541
v -0.053355 -0.301732 0.052371
v -0.053375 -0.301732 -0.038541
v -0.245450 -0.223901 0.276754
v -0.245569 -0.223901 -0.262839
v -0.245450 0.247034 0.276754
v -0.245569 0.247034 -0.262839
v -0.334102 -0.086367 -0.329658
v -0.334102 0.109500 -0.329658
v -0.333954 -0.086367 0.343612
v -0.333954 0.109500 0.343612
v -0.334037 -0.029111 -0.031319
v -0.334037 0.052244 -0.031319
v -0.334020 -0.029111 0.045273
v -0.334020 0.052244 0.045273
v -0.408111 -0.029111 -0.031303
v -0.408111 0.052244 -0.031303
v -0.408094 -0.029111 0.045290
v -0.408094 0.052244 0.045290
v -0.232703 -0.026125 -0.329680
v -0.232703 0.049258 -0.329680
v -0.105817 0.049258 -0.329708
v -0.105817 -0.026125 -0.329708
v -0.232706 -0.026125 -0.343936
v -0.232706 0.049258 -0.343936
v -0.105820 -0.026125 -0.343964
v -0.105820 0.049258 -0.343964
v -0.203385 -0.008706 -0.343942
v -0.203385 0.031839 -0.343942
v -0.135140 -0.008706 -0.343957
v -0.135140 0.031839 -0.343957
v -0.203385 -0.008706 -0.343942
v -0.203385 0.031839 -0.343942
v -0.135140 -0.008706 -0.343957
v -0.135140 0.031839 -0.343957
v -0.203388 -0.008706 -0.355011
v -0.203388 0.031839 -0.355011
v -0.135143 -0.008706 -0.355026
v -0.135143 0.031839 -0.355026
v -0.246563 0.265136 0.372030
v -0.246705 0.265136 -0.274832
v -0.341330 0.183861 -0.346247
v -0.341171 0.118140 0.373342
v -0.246563 0.265136 0.372030
v -0.246705 0.265136 -0.274832
v -0.341330 0.118140 -0.346247
v -0.341171 0.118140 0.373342
v -0.290043 0.252826 0.373954
v -0.290185 0.252826 -0.272907
v -0.384810 0.105830 -0.344323
v -0.384651 0.105830 0.375266
v -0.328805 0.215743 0.371347
v -0.328948 0.215743 -0.275514
v -0.423572 0.068747 -0.346929
v -0.423414 0.068747 0.372660
v -0.354894 -0.042696 0.344069
v -0.355052 -0.042696 -0.375519
v -0.393657 -0.079780 0.341463
v -0.393815 -0.079780 -0.378126
v -0.246557 0.265379 0.399650
v -0.341165 0.118383 0.400962
v -0.341171 -0.062017 0.374924
v -0.341165 -0.061774 0.402544
v -0.333954 -0.086367 0.343612
v -0.333954 0.109500 0.343612
v 0.140101 -1.628755 0.066505
v 0.044689 -0.329077 0.052350
v 0.044669 -0.329077 -0.038562
v -0.004333 -0.329077 0.052360
v -0.004353 -0.329077 -0.038552
v 0.044689 -0.301732 0.052350
v 0.044669 -0.301732 -0.038562
v -0.004333 -0.301732 0.052360
v -0.004353 -0.301732 -0.038552
v 0.236883 -0.223901 0.276648
v 0.236764 -0.223901 -0.262946
v -0.004283 -0.223901 0.276701
v -0.004402 -0.223901 -0.262892
v 0.236883 0.247034 0.276648
v 0.236764 0.247034 -0.262946
v -0.004283 0.247034 0.276701
v -0.004402 0.247034 -0.262892
v -0.004269 -0.086367 0.343539
v -0.004269 0.109500 0.343539
v 0.325268 -0.086367 -0.329803
v 0.325268 0.109500 -0.329803
v -0.004417 0.109500 -0.329730
v -0.004417 -0.086367 -0.329730
v 0.325417 -0.086367 0.343466
v 0.325417 0.109500 0.343466
v 0.325334 -0.029111 -0.031465
v 0.325334 0.052244 -0.031465
v 0.325351 -0.029111 0.045128
v 0.325351 0.052244 0.045128
v 0.399408 -0.029111 -0.031481
v 0.399408 0.052244 -0.031481
v 0.399425 -0.029111 0.045112
v 0.399425 0.052244 0.045112
v 0.223869 -0.026125 -0.329781
v 0.223869 0.049258 -0.329781
v 0.096982 0.049258 -0.329753
v 0.096982 -0.026125 -0.329753
v 0.223865 -0.026125 -0.344037
v 0.223865 0.049258 -0.344037
v 0.096979 -0.026125 -0.344009
v 0.096979 0.049258 -0.344009
v 0.194545 -0.008706 -0.344030
v 0.194545 0.031839 -0.344030
v 0.126300 -0.008706 -0.344015
v 0.126300 0.031839 -0.344015
v 0.194545 -0.008706 -0.344030
v 0.194545 0.031839 -0.344030
v 0.126300 -0.008706 -0.344015
v 0.126300 0.031839 -0.344015
v 0.194542 -0.008706 -0.355099
v 0.194542 0.031839 -0.355099
v 0.126297 -0.008706 -0.355084
v 0.126297 0.031839 -0.355084
v 0.238038 0.265136 0.371923
v 0.237895 0.265136 -0.274939
v -0.004262 0.265136 0.371976
v -0.004405 0.265136 -0.274885
v -0.004262 0.118140 0.373267
v 0.332488 0.183861 -0.346396
v -0.004421 0.183861 -0.346321
v 0.332647 0.118140 0.373193
v 0.238038 0.265136 0.371923
v 0.237895 0.265136 -0.274939
v 0.332488 0.118140 -0.346396
v 0.332647 0.118140 0.373193
v 0.281519 0.252826 0.373828
v 0.281376 0.252826 -0.273033
v 0.375969 0.105830 -0.344490
v 0.376128 0.105830 0.375098
v 0.320280 0.215743 0.371204
v 0.320138 0.215743 -0.275657
v 0.414731 0.068747 -0.347114
v 0.414889 0.068747 0.372475
v 0.346356 -0.042696 0.343915
v 0.346198 -0.042696 -0.375674
v 0.385118 -0.079780 0.341291
v 0.384960 -0.079780 -0.378298
v -0.004256 0.265379 0.399596
v -0.004256 0.118383 0.400888
v 0.238044 0.265379 0.399543
v 0.332653 0.118383 0.400813
v -0.004262 -0.062017 0.374850
v 0.332647 -0.062017 0.374775
v -0.004256 -0.061774 0.402470
v 0.332653 -0.061774 0.402396
v -0.004269 -0.086367 0.343539
v -0.004269 0.109500 0.343539
v 0.325417 -0.086367 0.343466
v 0.325417 0.109500 0.343466
vt 0.285156 0.425781
vt 0.285156 0.425781
vt 0.285156 0.425781
vt 0.285156 0.425781
vt 0.285156 0.425781
vt 0.285156 0.425781
vt 0.285156 0.425781
vt 0.285156 0.425781
vt 0.285156 0.425781
vt 0.285156 0.425781
vt 0.285156 0.425781
vt 0.285156 0.425781
vt 0.285156 0.425781
vt 0.285156 0.425781
vt 0.285156 0.425781
vt 0.285156 0.425781
vt 0.285156 0.425781
vt 0.285156 0.425781
vt 0.285156 0.425781
vt 0.285156 0.425781
vt 0.285156 0.425781
vt 0.285156 0.425781
vt 0.285156 0.425781
vt 0.285156 0.425781
vt 0.285156 0.425781
vt 0.285156 0.425781
vt 0.285156 0.425781
vt 0.285156 0.425781
vt 0.285156 0.425781
vt 0.285156 0.425781
vt 0.285156 0.425781
vt 0.285156 0.425781
vt 0.066406 0.929688
vt 0.066406 0.929688
vt 0.066406 0.929688
vt 0.066406 0.929688
vt 0.066406 0.929688
vt 0.066406 0.929688
vt 0.066406 0.929688
vt 0.066406 0.929688
vt 0.066406 0.929688
vt 0.066406 0.929688
vt 0.066406 0.929688
vt 0.066406 0.929688
vt 0.066406 0.929688
vt 0.066406 0.929688
vt 0.066406 0.929688
vt 0.066406 0.929688
vt 0.066406 0.929688
vt 0.066406 0.929688
vt 0.921875 0.933594
vt 0.921875 0.933594
vt 0.921875 0.933594
vt 0.921875 0.933594
vt 0.066406 0.929688
vt 0.066406 0.929688
vt 0.699219 0.406250
vt 0.699219 0.406250
vt 0.699219 0.406250
vt 0.699219 0.406250
vt 0.699219 0.406250
vt 0.699219 0.406250
vt 0.699219 0.406250
vt 0.000000 0.000000
vt 0.000000 0.000000
vt 0.000000 0.000000
vt 0.000000 0.000000
vt 0.699219 0.406250
vt 0.699219 0.406250
vt 0.699219 0.406250
vt 0.699219 0.406250
vt 0.699219 0.406250
vt 0.699219 0.406250
vt 0.699219 0.406250
vt 0.699219 0.406250
vt 0.699219 0.406250
vt 0.699219 0.406250
vt 0.699219 0.406250
vt 0.699219 0.406250
vt 0.699219 0.406250
vt 0.699219 0.406250
vt 0.699219 0.406250
vt 0.699219 0.406250
vt 0.699219 0.406250
vt 0.699219 0.406250
vt 0.699219 0.406250
vt 0.699219 0.406250
vt 0.000000 0.000000
vt 0.000000 0.000000
vt 0.699219 0.406250
vt 0.699219 0.406250
vt 0.699219 0.406250
vt 0.285156 0.425781
vt 0.285156 0.425781
vt 0.285156 0.425781
vt 0.285156 0.425781
vt 0.285156 0.425781
vt 0.285156 0.425781
vt 0.285156 0.425781
vt 0.285156 0.425781
vt 0.285156 0.425781
vt 0.285156 0.425781
vt 0.285156 0.425781
vt 0.285156 0.425781
vt 0.285156 0.425781
vt 0.285156 0.425781
vt 0.285156 0.425781
vt 0.285156 0.425781
vt 0.285156 0.425781
vt 0.285156 0.425781
vt 0.285156 0.425781
vt 0.285156 0.425781
vt 0.285156 0.425781
vt 0.285156 0.425781
vt 0.285156 0.425781
vt 0.285156 0.425781
vt 0.066406 0.929688
vt 0.066406 0.929688
vt 0.066406 0.929688
vt 0.066406 0.929688
vt 0.066406 0.929688
vt 0.066406 0.929688
vt 0.066406 0.929688
vt 0.066406 0.929688
vt 0.066406 0.929688
vt 0.066406 0.929688
vt 0.066406 0.929688
vt 0.066406 0.929688
vt 0.066406 0.929688
vt 0.066406 0.929688
vt 0.066406 0.929688
vt 0.066406 0.929688
vt 0.066406 0.929688
vt 0.066406 0.929688
vt 0.921875 0.933594
vt 0.921875 0.933594
vt 0.921875 0.933594
vt 0.921875 0.933594
vt 0.066406 0.929688
vt 0.066406 0.929688
vt 0.699219 0.406250
vt 0.699219 0.406250
vt 0.699219 0.406250
vt 0.699219 0.406250
vt 0.000000 0.000000
vt 0.000000 0.000000
vt 0.699219 0.406250
vt 0.699219 0.406250
vt 0.699219 0.406250
vt 0.699219 0.406250
vt 0.699219 0.406250
vt 0.699219 0.406250
vt 0.699219 0.406250
vt 0.699219 0.406250
vt 0.699219 0.406250
vt 0.699219 0.406250
vt 0.699219 0.406250
vt 0.699219 0.406250
vt 0.699219 0.406250
vt 0.699219 0.406250
vt 0.699219 0.406250
vt 0.699219 0.406250
vt 0.699219 0.406250
vt 0.699219 0.406250
vt 0.000000 0.000000
vt 0.699219 0.406250
vt 0.699219 0.406250
vt 0.285156 0.425781
vt 0.285156 0.425781
vn 0.0002 0.0000 1.0000
vn -0.0001 -0.9448 -0.3278
vn -0.0002 0.0000 -1.0000
vn -1.0000 0.0000 0.0002
vn -0.0002 0.4371 -0.8994
vn -0.3754 -0.9268 0.0001
vn 0.0001 -0.9448 0.3278
vn 0.0000 1.0000 0.0000
vn -0.8409 0.5412 0.0002
vn 0.0002 0.4371 0.8994
vn 0.0002 -0.4371 0.8994
vn -0.8409 -0.5412 0.0002
vn -0.0002 -0.4371 -0.8994
vn 1.0000 0.0000 -0.0002
vn 0.0000 -1.0000 -0.0000
vn 0.0000 0.0000 1.0000
vn -0.0002 0.6602 -0.7511
vn -0.7741 0.6323 0.0306
vn -0.0002 -0.0088 -1.0000
vn 0.8409 -0.5412 -0.0002
vn -0.1918 0.1321 0.9725
vn -0.1850 0.5232 -0.8319
vn 0.0510 -0.0239 0.9984
vn -0.2724 0.9622 0.0001
vn 0.2724 -0.9622 -0.0001
vn -0.6913 0.7226 0.0002
vn -0.1096 0.1832 -0.9769
vn -0.5614 0.6249 -0.5425
vn 0.6913 -0.7226 -0.0002
vn 0.1096 -0.1832 0.9769
vn -0.9805 -0.1965 0.0002
vn 0.9805 0.1965 -0.0002
vn 0.0002 0.0088 1.0000
vn -0.8409 0.5412 -0.0046
vn -0.0000 1.0000 -0.0088
vn 0.0000 -1.0000 0.0088
vn 0.3754 -0.9268 -0.0001
vn 0.8409 0.5412 -0.0002
vn 0.7741 0.6323 0.0302
vn 0.1922 0.1321 0.9724
vn 0.1846 0.5232 -0.8320
vn -0.0505 -0.0239 0.9984
vn 0.2724 0.9622 -0.0001
vn -0.2724 -0.9622 0.0001
vn 0.6913 0.7226 -0.0002
vn 0.1092 0.1832 -0.9770
vn 0.5611 0.6249 -0.5427
vn -0.6913 -0.7226 0.0002
vn -0.1092 -0.1832 0.9770
vn 0.9805 -0.1965 -0.0002
vn -0.9805 0.1965 0.0002
vn 0.8409 0.5412 -0.0049
usemtl Material
s off
f 2/1/1 71/2/1 75/3/1 4/4/1
f 76/5/2 5/6/2 7/7/2 80/8/2
f 72/9/3 3/10/3 5/6/3 76/5/3
f 3/10/4 2/1/4 4/4/4 5/6/4
f 89/11/5 11/12/5 9/13/5 84/14/5
f 5/6/6 4/4/6 6/15/6 7/7/6
f 4/4/7 75/3/7 79/16/7 6/15/7
f 8/17/8 83/18/8 84/14/8 9/13/8
f 11/12/9 13/19/9 8/17/9 9/13/9
f 13/19/10 86/20/10 83/18/10 8/17/10
f 6/15/11 79/16/11 85/21/11 12/22/11
f 12/22/1 85/21/1 86/20/1 13/19/1
f 7/7/12 6/15/12 12/22/12 10/23/12
f 10/23/4 12/22/4 13/19/4 11/12/4
f 80/8/13 7/7/13 10/23/13 90/24/13
f 90/24/3 10/23/3 11/12/3 89/11/3
f 14/25/14 15/26/14 17/27/14 16/28/14
f 18/29/4 20/30/4 21/31/4 19/32/4
f 17/27/8 15/26/8 19/32/8 21/31/8
f 16/28/1 17/27/1 21/31/1 20/30/1
f 14/25/15 16/28/15 20/30/15 18/29/15
f 15/26/3 14/25/3 18/29/3 19/32/3
f 25/33/1 24/34/1 23/35/1 22/36/1
f 28/37/3 26/38/3 27/39/3 29/40/3
f 25/33/15 22/36/15 26/38/15 28/37/15
f 22/36/4 23/35/4 27/39/4 26/38/4
f 23/35/8 24/34/8 29/40/8 27/39/8
f 24/34/14 25/33/14 28/37/14 29/40/14
f 32/41/1 33/42/1 31/43/1 30/44/1
f 36/45/15 34/46/15 38/47/15 40/48/15
f 31/43/16 33/42/16 37/49/16 35/50/16
f 33/42/16 32/41/16 36/45/16 37/49/16
f 32/41/16 30/44/16 34/46/16 36/45/16
f 30/44/16 31/43/16 35/50/16 34/46/16
f 40/51/3 38/52/3 39/53/3 41/54/3
f 34/46/4 35/50/4 39/55/4 38/47/4
f 35/50/8 37/49/8 41/56/8 39/55/8
f 37/49/14 36/45/14 40/48/14 41/56/14
f 127/57/17 44/58/17 43/59/17 124/60/17
f 42/61/8 123/62/8 124/60/8 43/59/8
f 44/58/18 45/63/18 42/61/18 43/59/18
f 45/64/19 125/65/19 149/66/19 64/67/19
f 48/68/20 47/69/20 46/70/20 49/71/20
f 53/72/21 50/73/21 54/74/21 57/75/21
f 47/69/22 48/68/22 52/76/22 51/77/22
f 49/71/23 46/70/23 50/73/23 53/72/23
f 46/70/24 47/69/24 51/77/24 50/73/24
f 48/68/25 49/71/25 53/72/25 52/76/25
f 56/78/9 57/75/9 54/74/9 55/79/9
f 50/73/26 51/77/26 55/79/26 54/74/26
f 56/78/27 52/76/27 59/80/27 61/81/27
f 51/77/28 52/76/28 56/78/28 55/79/28
f 59/80/29 58/82/29 60/83/29 61/81/29
f 53/72/30 57/75/30 60/83/30 58/82/30
f 57/75/31 56/78/31 61/81/31 60/83/31
f 52/76/32 53/72/32 58/82/32 59/80/32
f 63/84/33 146/85/33 145/86/33 62/87/33
f 42/61/34 45/63/34 63/84/34 62/87/34
f 123/62/35 42/61/35 62/87/35 145/86/35
f 64/67/36 149/66/36 151/88/36 65/89/36
f 63/84/4 45/63/4 64/90/4 65/91/4
f 146/85/33 63/84/33 65/91/33 151/92/33
f 66/93/1 153/94/1 154/95/1 67/96/1
f 69/97/1 73/98/1 75/3/1 71/2/1
f 76/5/2 80/8/2 78/99/2 74/100/2
f 72/9/3 76/5/3 74/100/3 70/101/3
f 70/101/14 74/100/14 73/98/14 69/97/14
f 89/11/5 84/14/5 82/102/5 88/103/5
f 74/100/37 78/99/37 77/104/37 73/98/37
f 73/98/7 77/104/7 79/16/7 75/3/7
f 81/105/8 82/102/8 84/14/8 83/18/8
f 88/103/38 82/102/38 81/105/38 92/106/38
f 92/106/10 81/105/10 83/18/10 86/20/10
f 77/104/11 91/107/11 85/21/11 79/16/11
f 91/107/1 92/106/1 86/20/1 85/21/1
f 78/99/20 87/108/20 91/107/20 77/104/20
f 87/108/14 88/103/14 92/106/14 91/107/14
f 80/8/13 90/24/13 87/108/13 78/99/13
f 90/24/3 89/11/3 88/103/3 87/108/3
f 93/109/4 95/110/4 96/111/4 94/112/4
f 97/113/14 98/114/14 100/115/14 99/116/14
f 96/111/8 100/115/8 98/114/8 94/112/8
f 95/110/1 99/116/1 100/115/1 96/111/1
f 93/109/15 97/113/15 99/116/15 95/110/15
f 94/112/3 98/114/3 97/113/3 93/109/3
f 104/117/1 101/118/1 102/119/1 103/120/1
f 107/121/3 108/122/3 106/123/3 105/124/3
f 104/117/15 107/121/15 105/124/15 101/118/15
f 101/118/14 105/124/14 106/123/14 102/119/14
f 102/119/8 106/123/8 108/122/8 103/120/8
f 103/120/4 108/122/4 107/121/4 104/117/4
f 111/125/1 109/126/1 110/127/1 112/128/1
f 115/129/15 119/130/15 117/131/15 113/132/15
f 110/127/16 114/133/16 116/134/16 112/128/16
f 112/128/16 116/134/16 115/129/16 111/125/16
f 111/125/16 115/129/16 113/132/16 109/126/16
f 109/126/16 113/132/16 114/133/16 110/127/16
f 119/135/3 120/136/3 118/137/3 117/138/3
f 113/132/14 117/131/14 118/139/14 114/133/14
f 114/133/8 118/139/8 120/140/8 116/134/8
f 116/134/4 120/140/4 119/130/4 115/129/4
f 127/57/17 124/60/17 122/141/17 126/142/17
f 121/143/8 122/141/8 124/60/8 123/62/8
f 126/142/39 122/141/39 121/143/39 128/144/39
f 128/145/19 150/146/19 149/66/19 125/65/19
f 131/147/12 132/148/12 129/149/12 130/150/12
f 136/151/40 140/152/40 137/153/40 133/154/40
f 130/150/41 134/155/41 135/156/41 131/147/41
f 132/148/42 136/151/42 133/154/42 129/149/42
f 129/149/43 133/154/43 134/155/43 130/150/43
f 131/147/44 135/156/44 136/151/44 132/148/44
f 139/157/38 138/158/38 137/153/38 140/152/38
f 133/154/45 137/153/45 138/158/45 134/155/45
f 139/157/46 144/159/46 142/160/46 135/156/46
f 134/155/47 138/158/47 139/157/47 135/156/47
f 142/160/48 144/159/48 143/161/48 141/162/48
f 136/151/49 141/162/49 143/161/49 140/152/49
f 140/152/50 143/161/50 144/159/50 139/157/50
f 135/156/51 142/160/51 141/162/51 136/151/51
f 148/163/33 147/164/33 145/86/33 146/85/33
f 121/143/52 147/164/52 148/163/52 128/144/52
f 123/62/35 145/86/35 147/164/35 121/143/35
f 150/146/36 152/165/36 151/88/36 149/66/36
f 148/163/14 152/166/14 150/167/14 128/144/14
f 146/85/33 151/92/33 152/166/33 148/163/33
f 155/168/1 156/169/1 154/95/1 153/94/1
